<?xml version="1.0" encoding="UTF-8"?>
<svg width="20px" height="20px" viewBox="0 0 20 20" version="1.1" xmlns="http://www.w3.org/2000/svg" xmlns:xlink="http://www.w3.org/1999/xlink">
    <!-- Generator: sketchtool 63.1 (101010) - https://sketch.com -->
    <title>85C495EA-A9BD-4097-A1D8-5ACBD4C65509@1.00x</title>
    <desc>Created with sketchtool.</desc>
    <g id="#-Symbols" stroke="none" stroke-width="1" fill="none" fill-rule="evenodd">
        <g id="input/check-box/checked">
            <g id="shape">
                <rect id="Rectangle-2" stroke="#107DDA" stroke-width="2" fill="#FFFFFF" x="1" y="1" width="18" height="18" rx="2"></rect>
                <g transform="translate(3.000000, 4.000000)" fill="#107DDA" fill-rule="nonzero" id="Path">
                    <path d="M13.5018333,2.04 L11.8731667,0.36 C11.8184475,0.30357498 11.7441492,0.27186373 11.6666667,0.27186373 C11.5891841,0.27186373 11.5148858,0.30357498 11.4601667,0.36 L4.5815,7.44 C4.52678085,7.49642502 4.45248257,7.52813627 4.375,7.52813627 C4.29751743,7.52813627 4.22321915,7.49642502 4.1685,7.44 L2.53983333,5.76 C2.48511418,5.70357498 2.4108159,5.67186373 2.33333333,5.67186373 C2.25585076,5.67186373 2.18155249,5.70357498 2.12683333,5.76 L0.498166667,7.44 C0.384305268,7.55714996 0.384305268,7.74705004 0.498166667,7.8642 L4.1685,11.64 C4.22321915,11.696425 4.29751743,11.7281363 4.375,11.7281363 C4.45248257,11.7281363 4.52678085,11.696425 4.5815,11.64 L13.5018333,2.46 C13.613,2.34334695 13.613,2.15665305 13.5018333,2.04 Z"></path>
                </g>
            </g>
        </g>
    </g>
</svg>