<?xml version="1.0" encoding="utf-8"?>
<!-- Generator: Adobe Illustrator 22.0.0, SVG Export Plug-In . SVG Version: 6.00 Build 0)  -->
<svg version="1.1" id="svg8375" xmlns:svg="http://www.w3.org/2000/svg"
	 xmlns="http://www.w3.org/2000/svg" xmlns:xlink="http://www.w3.org/1999/xlink" x="0px" y="0px" viewBox="0 0 50 65"
	 style="enable-background:new 0 0 50 65;" xml:space="preserve">
<style type="text/css">
	.st0{fill:#4AB767;}
	.st1{fill:#686868;}
</style>
<g>
	<path class="st0" d="M31.5,45.4c1.3,0,0.5,0.8,0.5,0.8s-5.9,7.8-6.7,8.6c-0.6,0.6-1.2-0.1-1.2-0.1l-6.9-8.3c0,0-1-1,0-1H31
		L31.5,45.4z"/>
</g>
<g>
	<ellipse transform="matrix(0.9732 -0.2298 0.2298 0.9732 -5.2102 6.4517)" class="st1" cx="25.1" cy="25.6" rx="5.2" ry="5.2"/>
	<path class="st1" d="M25.1,10.7c-8.2,0-14.9,6.7-14.9,14.9c0,8.2,6.7,14.9,14.9,14.9c8.2,0,14.9-6.7,14.9-14.9
		C40,17.4,33.3,10.7,25.1,10.7z M31.4,25.7c0,1.2-0.3,2.3-0.8,3.2l-5.9,10.4c-0.5,0-0.9,0-1.4-0.1l4.3-7.6c-0.8,0.3-1.7,0.5-2.6,0.5
		c-2.3,0-4.3-1.2-5.5-3c0-0.1,0-0.1,0-0.1l-6.2-10.2c0.3-0.4,0.5-0.8,0.8-1.2l4.5,7.4c0.3-3.3,3.1-5.9,6.3-5.8h12
		c0.2,0.4,0.4,0.9,0.6,1.3h-8.7C30.4,21.7,31.4,23.6,31.4,25.7z"/>
	<path class="st1" d="M30.3,25.6c0,2.9-2.3,5.2-5.2,5.2c-2.9,0-5.2-2.3-5.2-5.2c0-2.9,2.3-5.2,5.2-5.2C28,20.4,30.3,22.7,30.3,25.6z
		"/>
</g>
</svg>
