<?xml version="1.0" encoding="utf-8"?>
<!-- Generator: Adobe Illustrator 22.0.0, SVG Export Plug-In . SVG Version: 6.00 Build 0)  -->
<svg version="1.1" id="svg8375" xmlns:svg="http://www.w3.org/2000/svg"
	 xmlns="http://www.w3.org/2000/svg" xmlns:xlink="http://www.w3.org/1999/xlink" x="0px" y="0px" viewBox="0 0 50 65"
	 style="enable-background:new 0 0 50 65;" xml:space="preserve">
<style type="text/css">
	.st0{fill:#91DC5A;}
</style>
<g>
	<path class="st0" d="M31.5,52.4c1.3,0,0.5,0.8,0.5,0.8s-5.9,7.8-6.7,8.6c-0.6,0.6-1.2-0.1-1.2-0.1l-6.9-8.3c0,0-1-1,0-1
		c0,0,13.8,0,13.8,0L31.5,52.4z"/>
</g>
<path d="M18.6,25l-4.5-7.4c-0.3,0.4-0.5,0.8-0.8,1.2L19.5,29c0,0,0,0,0,0.1c1.2,1.8,3.2,3,5.5,3c0.9,0,1.8-0.2,2.6-0.5l-4.3,7.6
	c0.5,0.1,0.9,0.1,1.4,0.1l5.9-10.4c0,0,0,0,0,0c0.5-0.9,0.8-2,0.8-3.2c0-2.1-1-4-2.6-5.2h8.7c-0.2-0.4-0.4-0.9-0.6-1.3h-12
	C21.7,19.1,18.9,21.7,18.6,25z M30.3,25.6c0,2.9-2.3,5.2-5.2,5.2s-5.2-2.3-5.2-5.2s2.3-5.2,5.2-5.2S30.3,22.7,30.3,25.6z"/>
<path d="M25.1,1.2C11.6,1.2,0.7,12.1,0.7,25.6s10.9,24.4,24.4,24.4S49.4,39,49.4,25.6S38.5,1.2,25.1,1.2z M25.1,40.5
	c-8.2,0-14.9-6.7-14.9-14.9s6.7-14.9,14.9-14.9S40,17.4,40,25.6S33.3,40.5,25.1,40.5z"/>
</svg>
