<?xml version="1.0" encoding="UTF-8"?>
<svg width="230px" height="139px" viewBox="0 0 230 139" version="1.1" xmlns="http://www.w3.org/2000/svg" xmlns:xlink="http://www.w3.org/1999/xlink">
    <!-- Generator: Sketch 50.2 (55047) - http://www.bohemiancoding.com/sketch -->
    <title>screeny-image</title>
    <desc>Created with Sketch.</desc>
    <defs></defs>
    <g id="Page-1" stroke="none" stroke-width="1" fill="none" fill-rule="evenodd">
      <g id="screeny-image" transform="translate(-20.000000, -50.000000)">
        <g stroke-width="1" fill-rule="evenodd" transform="translate(24.000000, 53.000000)">
            <rect id="Rectangle" stroke="#E6E6E6" stroke-width="10" x="0" y="0" width="222" height="128" rx="4"></rect>
            <path d="M25,14 L15,31" id="Line" stroke="#E6E6E6" stroke-width="5" stroke-linecap="round"></path>
            <path d="M38,17 L23,43" id="Line" stroke="#E6E6E6" stroke-width="5" stroke-linecap="round"></path>
            <path d="M160,49.888239 C159.997058,40.0068656 151.94311,32.0029242 142,32 C132.05689,32.0029242 124.002942,40.0068656 124,49.888239 C124,52.710235 126.30407,55 129.143698,55 C131.983325,55 134.287396,52.710235 134.287396,49.888239 C134.293281,45.6567067 137.74203,42.2293703 142,42.2205979 C146.25797,42.2293703 149.706719,45.6567067 149.712604,49.888239 C149.712604,52.710235 152.016675,55 154.856302,55 C157.69593,55 160,52.710235 160,49.888239 Z" id="Shape" fill="#E6E6E6" fill-rule="nonzero"></path>
            <path d="M98,49.888239 C97.9970573,40.0068656 89.9453938,32.0029242 79.9985287,32 C70.0546062,32.0029242 62.0029427,40.0068656 62,49.888239 C62,52.710235 64.3013165,55 67.1411757,55 C69.9839776,55 72.2852941,52.710235 72.2852941,49.888239 C72.2941221,45.6567067 75.7402108,42.2293703 79.9985287,42.2205979 C84.2597892,42.2293703 87.7058779,45.6567067 87.7147059,49.888239 C87.7147059,52.710235 90.0160224,55 92.858825,55 C95.6986843,55 98,52.710235 98,49.888239 Z" id="Shape" fill="#E6E6E6" fill-rule="nonzero"></path>
        </g>
        <path d="M91.5666805,142.146845 C96.4294196,146.844299 102.930754,150.494926 110.484208,153.042697 C118.040609,155.581623 126.672707,157 135.852968,157 C145.142273,157 153.871625,155.549186 161.492863,152.948336 C169.111154,150.341587 175.644906,146.611343 180.484068,141.801833 C182.499895,139.793694 182.505788,136.529362 180.498804,134.515325 C178.488871,132.498339 175.229363,132.49539 173.213537,134.503529 C169.836144,137.882865 164.622698,140.999757 158.168518,143.193672 C151.720232,145.396433 144.060682,146.696859 135.852968,146.696859 C127.74251,146.696859 120.168425,145.42887 113.767293,143.27329 C107.36616,141.126556 102.15861,138.074538 98.7340627,134.742383 C96.6917126,132.760783 93.4292568,132.813861 91.4517429,134.860335 C89.471282,136.90386 89.5243304,140.168193 91.5666805,142.146845 Z" id="Shape" fill="#E6E6E6" fill-rule="nonzero"></path>
      </g>
    </g>
</svg>
