<svg xmlns="http://www.w3.org/2000/svg" width="12" height="23" viewBox="0 0 12 23">
    <g fill="#0081BA" fill-rule="nonzero">
        <path d="M6.216 22.636l4.78-4.782a.84.84 0 0 0 0-1.191l-.794-.795a.84.84 0 0 0-1.191 0l-3.39 3.39-3.389-3.39a.84.84 0 0 0-1.191 0l-.795.795a.84.84 0 0 0 0 1.191l4.781 4.782c.324.33.858.33 1.189 0zM5.027.864L.247 5.646a.84.84 0 0 0 0 1.191l.794.795a.84.84 0 0 0 1.191 0l3.393-3.385 3.39 3.389a.84.84 0 0 0 1.19 0l.799-.795a.84.84 0 0 0 0-1.192L6.223.868A.841.841 0 0 0 5.027.864z"/>
    </g>
</svg>
