<?xml version="1.0" encoding="UTF-8"?>
<svg width="307px" height="186px" viewBox="0 0 307 186" version="1.1" xmlns="http://www.w3.org/2000/svg" xmlns:xlink="http://www.w3.org/1999/xlink">
    <!-- Generator: Sketch 50.2 (55047) - http://www.bohemiancoding.com/sketch -->
    <title>screeny-list</title>
    <desc>Created with Sketch.</desc>
    <defs></defs>
    <g id="Page-1" stroke="none" stroke-width="1" fill="none" fill-rule="evenodd">
        <g id="hf-mobile_2-4_empty-state" transform="translate(-39.000000, -234.000000)">
            <g id="Group-4" transform="translate(20.000000, 110.000000)">
                <g id="screeny-list" transform="translate(0.000000, 124.000000)">
                    <g id="screeny">
                        <g stroke-width="1" fill-rule="evenodd" transform="translate(24.000000, 53.000000)">
                            <rect id="Rectangle" stroke="#E6E6E6" stroke-width="10" x="0" y="0" width="222" height="128" rx="4"></rect>
                            <path d="M25,14 L15,31" id="Line" stroke="#E6E6E6" stroke-width="5" stroke-linecap="round"></path>
                            <path d="M38,17 L23,43" id="Line" stroke="#E6E6E6" stroke-width="5" stroke-linecap="round"></path>
                            <path d="M160,49.888239 C159.997058,40.0068656 151.94311,32.0029242 142,32 C132.05689,32.0029242 124.002942,40.0068656 124,49.888239 C124,52.710235 126.30407,55 129.143698,55 C131.983325,55 134.287396,52.710235 134.287396,49.888239 C134.293281,45.6567067 137.74203,42.2293703 142,42.2205979 C146.25797,42.2293703 149.706719,45.6567067 149.712604,49.888239 C149.712604,52.710235 152.016675,55 154.856302,55 C157.69593,55 160,52.710235 160,49.888239 Z" id="Shape" fill="#E6E6E6" fill-rule="nonzero"></path>
                            <path d="M98,49.888239 C97.9970573,40.0068656 89.9453938,32.0029242 79.9985287,32 C70.0546062,32.0029242 62.0029427,40.0068656 62,49.888239 C62,52.710235 64.3013165,55 67.1411757,55 C69.9839776,55 72.2852941,52.710235 72.2852941,49.888239 C72.2941221,45.6567067 75.7402108,42.2293703 79.9985287,42.2205979 C84.2597892,42.2293703 87.7058779,45.6567067 87.7147059,49.888239 C87.7147059,52.710235 90.0160224,55 92.858825,55 C95.6986843,55 98,52.710235 98,49.888239 Z" id="Shape" fill="#E6E6E6" fill-rule="nonzero"></path>
                            <circle id="Oval" fill="#FFFFFF" cx="206.5" cy="128.5" r="2.5"></circle>
                        </g>
                        <path d="M245.999977,5 C204.584782,5 171,27.3596794 171,54.9245473 C171,74.3421635 187.656603,91.1345543 211.917308,99.3723309 C211.690995,112.860559 198.881705,123.361461 198.881705,123.361461 L239.346388,104.622782 C241.518989,104.758569 243.736852,104.803832 245.999977,104.803832 C287.415173,104.803832 320.999954,82.4441526 320.999954,54.9245473 C321.045217,27.3596794 287.460435,5 245.999977,5 Z" id="Shape" stroke="#FFFFFF" stroke-width="10" fill="#E6E6E6" fill-rule="nonzero"></path>
                        <path d="M91.5666805,142.146845 C96.4294196,146.844299 102.930754,150.494926 110.484208,153.042697 C118.040609,155.581623 126.672707,157 135.852968,157 C145.142273,157 153.871625,155.549186 161.492863,152.948336 C169.111154,150.341587 175.644906,146.611343 180.484068,141.801833 C182.499895,139.793694 182.505788,136.529362 180.498804,134.515325 C178.488871,132.498339 175.229363,132.49539 173.213537,134.503529 C169.836144,137.882865 164.622698,140.999757 158.168518,143.193672 C151.720232,145.396433 144.060682,146.696859 135.852968,146.696859 C127.74251,146.696859 120.168425,145.42887 113.767293,143.27329 C107.36616,141.126556 102.15861,138.074538 98.7340627,134.742383 C96.6917126,132.760783 93.4292568,132.813861 91.4517429,134.860335 C89.471282,136.90386 89.5243304,140.168193 91.5666805,142.146845 Z" id="Shape" fill="#E6E6E6" fill-rule="nonzero"></path>
                    </g>
                    <path d="M233,39 L233,34 C233,32.895375 233.858068,32 234.916667,32 L277.083333,32 C278.141932,32 279,32.895375 279,34 L279,39 C279,40.104625 278.141932,41 277.083333,41 L234.916667,41 C233.858068,41 233,40.104625 233,39 Z M234.916667,60 L277.083333,60 C278.141932,60 279,59.104625 279,58 L279,53 C279,51.895375 278.141932,51 277.083333,51 L234.916667,51 C233.858068,51 233,51.895375 233,53 L233,58 C233,59.104625 233.858068,60 234.916667,60 Z M234.916667,79 L277.083333,79 C278.141932,79 279,78.104625 279,77 L279,72 C279,70.895375 278.141932,70 277.083333,70 L234.916667,70 C233.858068,70 233,70.895375 233,72 L233,77 C233,78.104625 233.858068,79 234.916667,79 Z M219.833333,42 L227.166667,42 C228.17924,42 229,41.104625 229,40 L229,32 C229,30.895375 228.17924,30 227.166667,30 L219.833333,30 C218.82076,30 218,30.895375 218,32 L218,40 C218,41.104625 218.82076,42 219.833333,42 Z M219.833333,62 L227.166667,62 C228.17924,62 229,61.104625 229,60 L229,52 C229,50.895375 228.17924,50 227.166667,50 L219.833333,50 C218.82076,50 218,50.895375 218,52 L218,60 C218,61.104625 218.82076,62 219.833333,62 Z M219.833333,80 L227.166667,80 C228.17924,80 229,79.104625 229,78 L229,70 C229,68.895375 228.17924,68 227.166667,68 L219.833333,68 C218.82076,68 218,68.895375 218,70 L218,78 C218,79.104625 218.82076,80 219.833333,80 Z" id="Shape" fill="#FFFFFF" fill-rule="nonzero"></path>
                </g>
            </g>
        </g>
    </g>
</svg>