<?xml version="1.0" encoding="utf-8"?>
<!-- Generator: Adobe Illustrator 22.0.0, SVG Export Plug-In . SVG Version: 6.00 Build 0)  -->
<svg version="1.1" id="svg8375" xmlns:svg="http://www.w3.org/2000/svg"
	 xmlns="http://www.w3.org/2000/svg" xmlns:xlink="http://www.w3.org/1999/xlink" x="0px" y="0px" viewBox="0 0 50 65"
	 style="enable-background:new 0 0 50 65;" xml:space="preserve">
<style type="text/css">
	.st0{fill:#91DC5A;}
</style>
<g>
	<path class="st0" d="M31.5,52.4c1.3,0,0.5,0.8,0.5,0.8s-5.9,7.8-6.7,8.6c-0.6,0.6-1.2-0.1-1.2-0.1l-6.9-8.3c0,0-1-1,0-1
		c0,0,13.8,0,13.8,0L31.5,52.4z"/>
</g>
<path d="M18.1,23.8c0.1-0.1,0.2-0.2,0.3-0.4c0,0,0-0.1,0-0.1c0-0.1,0-0.1,0-0.1c0,0,0-0.1,0-0.1c0,0,0-0.1,0-0.1v-0.1c0,0,0,0,0-0.1
	c0,0,0,0-0.1,0c-0.1,0-0.1,0-0.1,0.1c0,0.1-0.1,0.1-0.1,0.3c0,0.1-0.1,0.2-0.1,0.3c0,0.1-0.1,0.2-0.2,0.3c-0.1,0.1-0.1,0.2,0,0.2
	C17.9,23.9,17.9,23.9,18.1,23.8z"/>
<path d="M27.7,8.9c0.1,0,0.1-0.1,0.2-0.2c0.1-0.1,0.2-0.1,0.3-0.2c0,0,0.1,0,0.2,0s0.2,0,0.3,0c0.1,0,0.2-0.1,0.2-0.1
	c0,0,0-0.1-0.1-0.1c0,0-0.1-0.1-0.2-0.1C28.5,8.1,28.5,8,28.4,8c-0.2-0.2-0.4-0.3-0.5-0.3c-0.1,0-0.2,0.1-0.2,0.2c0,0.1,0,0.2,0,0.3
	c0,0.1,0,0.2,0,0.3c0,0.1-0.1,0.1-0.1,0.2c-0.1,0.1-0.1,0.1-0.1,0.2c0,0,0,0.1,0.1,0.2C27.6,9,27.6,9,27.7,8.9z"/>
<path d="M31,17.9c0.1,0,0.2,0,0.3-0.2c0.1-0.1,0.1-0.3,0.1-0.4c0-0.1-0.1-0.2-0.1-0.2c-0.1,0-0.1-0.1-0.3-0.1
	c-0.1,0-0.2-0.1-0.3-0.1c-0.1,0-0.1-0.1-0.2-0.2c-0.1-0.1-0.1-0.1-0.1-0.2c0,0-0.1-0.1-0.1-0.1c0,0-0.1-0.1-0.1-0.1c0,0,0,0-0.1,0
	c-0.2,0.2-0.1,0.5,0.1,0.9C30.5,17.6,30.8,17.9,31,17.9z"/>
<path d="M32.2,30.9c0-0.5,0.2-0.9,0.7-1.1s0.9-0.3,1.5-0.2c0.5,0.1,0.9,0.2,1.2,0.5c0-0.2-0.4-0.5-1.1-0.8c0.1-0.2,0.1-0.4,0.2-0.6
	c0-0.2,0.1-0.3,0.1-0.5c0-0.2,0-0.3,0.1-0.4c0-0.1,0-0.3,0-0.5c0-0.2,0-0.3,0-0.4c0-0.1,0-0.2-0.1-0.4c0-0.2-0.1-0.4-0.1-0.4
	c0,0,0-0.2-0.1-0.5c-0.1-0.3-0.1-0.5-0.1-0.5c-0.1-0.6-0.4-1.3-0.9-2.1c-0.5-0.7-1-1.2-1.5-1.5c0.3,0.3,0.7,0.8,1.1,1.7
	c1.2,2.2,1.5,4,1.1,5.6c-0.1,0.5-0.5,0.8-1,0.8c-0.4,0.1-0.7-0.1-0.8-0.4c-0.1-0.3-0.2-0.9-0.2-1.7c0-0.8-0.1-1.5-0.2-2.2
	c-0.1-0.5-0.3-1-0.4-1.4c-0.1-0.4-0.3-0.7-0.4-0.9c-0.1-0.2-0.2-0.4-0.3-0.5c-0.1-0.1-0.2-0.2-0.3-0.3c-0.1-0.1-0.1-0.1-0.2-0.1
	c-0.2-0.8-0.4-1.5-0.6-2.1c-0.2-0.6-0.4-0.9-0.6-1.1c-0.2-0.2-0.3-0.4-0.5-0.7c-0.1-0.2-0.2-0.5-0.3-0.8c-0.1-0.3,0-0.6,0.1-1.1
	c0.1-0.4,0.2-0.8,0.1-1c-0.1-0.2-0.4-0.4-0.9-0.5c-0.2,0-0.5-0.2-0.9-0.4c-0.4-0.2-0.6-0.3-0.7-0.3c-0.1,0-0.2-0.2-0.2-0.5
	c0-0.3,0-0.7,0.2-1c0.1-0.3,0.4-0.5,0.7-0.5c0.5,0,0.8,0.2,1,0.6c0.2,0.4,0.2,0.8,0.1,1.2c-0.1,0.3-0.2,0.4,0,0.5
	c0.1,0.1,0.3,0.1,0.6,0c0.2-0.1,0.3-0.3,0.3-0.7v-0.7c-0.1-0.4-0.2-0.7-0.3-1c-0.1-0.3-0.3-0.5-0.4-0.6c-0.2-0.1-0.3-0.2-0.5-0.3
	c-0.1-0.1-0.3-0.1-0.5-0.2c-1.4,0.1-2,1-1.8,2.7c0,0.2,0,0.3,0,0.3c-0.1-0.1-0.3-0.2-0.6-0.2c-0.3,0-0.5,0-0.7,0
	c-0.2,0-0.3,0-0.3-0.1c0-0.8-0.1-1.4-0.3-1.8c-0.2-0.4-0.5-0.7-0.9-0.7c-0.4,0-0.6,0.2-0.8,0.6c-0.2,0.4-0.3,0.8-0.3,1.2
	c0,0.2,0,0.5,0.1,0.7c0.1,0.3,0.1,0.5,0.3,0.8c0.1,0.2,0.2,0.3,0.3,0.3c0.1,0,0.2-0.1,0.3-0.3c0.1-0.1,0-0.2-0.1-0.2
	c-0.1,0-0.2-0.1-0.3-0.3c-0.1-0.2-0.2-0.4-0.2-0.7c0-0.3,0-0.5,0.2-0.7c0.1-0.2,0.4-0.3,0.7-0.3c0.2,0,0.4,0.1,0.5,0.4
	c0.1,0.3,0.2,0.5,0.2,0.8c0,0.2,0,0.4,0,0.4c-0.3,0.2-0.5,0.4-0.6,0.6c-0.1,0.2-0.3,0.3-0.6,0.5c-0.3,0.2-0.4,0.2-0.4,0.3
	c-0.2,0.2-0.3,0.4-0.3,0.5c0,0.2,0,0.3,0.2,0.4c0.2,0.1,0.4,0.2,0.5,0.4c0.1,0.2,0.3,0.3,0.3,0.4c0.1,0.1,0.2,0.2,0.4,0.3
	c0.2,0.1,0.4,0.1,0.7,0.1c0.6,0,1.3-0.1,2.1-0.3c0,0,0.2-0.1,0.5-0.1c0.3-0.1,0.5-0.2,0.7-0.2c0.2-0.1,0.4-0.1,0.6-0.3
	c0.2-0.1,0.4-0.2,0.4-0.4c0.1-0.2,0.3-0.2,0.4-0.2c0.1,0,0.1,0.1,0.1,0.2c0,0.1,0,0.2-0.1,0.2c-0.1,0.1-0.2,0.2-0.3,0.2
	c-0.3,0.1-0.6,0.2-1.1,0.4c-0.5,0.2-0.8,0.3-0.9,0.4c-0.6,0.3-1.1,0.4-1.4,0.5c-0.3,0.1-0.9,0.1-1.6,0c-0.1,0-0.2,0-0.2,0
	c0,0.1,0.1,0.2,0.3,0.4c0.3,0.3,0.8,0.5,1.4,0.4c0.2,0,0.5-0.1,0.7-0.1c0.3-0.1,0.5-0.2,0.7-0.3s0.5-0.2,0.7-0.4
	c0.2-0.1,0.4-0.2,0.6-0.3c0.2-0.1,0.3-0.2,0.5-0.2c0.1-0.1,0.3-0.1,0.4-0.1c0.1,0,0.1,0.1,0.2,0.2c0,0,0,0.1,0,0.1
	c0,0,0,0.1-0.1,0.1c0,0-0.1,0.1-0.1,0.1c0,0-0.1,0.1-0.2,0.1c-0.1,0-0.1,0.1-0.2,0.1c0,0-0.1,0.1-0.2,0.1c-0.1,0-0.2,0.1-0.2,0.1
	c-0.4,0.2-0.8,0.5-1.4,0.9c-0.5,0.4-1,0.7-1.3,0.9c-0.4,0.2-0.7,0.2-1,0c-0.3-0.1-0.7-0.6-1.3-1.5c-0.3-0.4-0.5-0.6-0.5-0.4
	c0,0,0,0.1,0,0.2c0,0.3-0.1,0.7-0.3,1.1c-0.2,0.4-0.4,0.8-0.6,1.1c-0.2,0.3-0.3,0.7-0.4,1.2c-0.1,0.5,0,0.9,0.2,1.3
	c-0.3,0.1-0.7,0.7-1.3,1.8c-0.5,1.1-0.8,2.1-1,2.8c0,0.2,0,0.7,0,1.4c0,0.7,0,1.1-0.1,1.2c-0.1,0.3-0.3,0.3-0.6,0.1
	c-0.4-0.4-0.7-1-0.7-1.9c0-0.4,0-0.8,0.1-1.1c0.1-0.3,0-0.4,0-0.4l-0.1,0.1c-0.5,0.9-0.4,2,0.2,3.3c0.1,0.2,0.2,0.3,0.5,0.6
	c0.3,0.2,0.4,0.3,0.5,0.4c0.3,0.3,1,0.9,2.1,1.8c1.1,0.9,1.8,1.4,1.9,1.5c0.2,0.2,0.3,0.5,0.4,0.8c0,0.3-0.1,0.6-0.3,0.9
	c-0.2,0.3-0.5,0.4-0.9,0.5c0.1,0.2,0.3,0.5,0.6,0.9c0.3,0.4,0.5,0.8,0.6,1.1c0.1,0.3,0.1,0.8,0.1,1.4c0.6-0.3,0.7-0.9,0.1-1.9
	c-0.1-0.1-0.1-0.2-0.2-0.3c-0.1-0.1-0.2-0.2-0.2-0.2c0-0.1-0.1-0.1,0-0.1c0-0.1,0.1-0.1,0.3-0.2c0.1-0.1,0.3,0,0.4,0.1
	c0.6,0.7,1.7,0.9,3.3,0.7c1.8-0.2,3-0.8,3.6-1.8c0.3-0.5,0.5-0.7,0.7-0.6c0.2,0.1,0.2,0.4,0.2,1c0,0.3-0.2,1-0.5,1.9
	C30,38.7,29.9,39,30,39.1c0,0.2,0.2,0.3,0.5,0.3c0-0.3,0.1-0.8,0.3-1.6c0.2-0.8,0.2-1.4,0.3-1.8c0-0.3,0-0.8-0.1-1.5
	c-0.1-0.7-0.2-1.4-0.2-2c0-0.6,0.2-1.1,0.5-1.4C31.4,31,31.7,30.9,32.2,30.9z M23.7,13.9c-0.1,0-0.3,0.1-0.3,0.2
	c-0.1,0.1-0.1,0.2-0.2,0.2c-0.1,0-0.1,0-0.1-0.1c0-0.2,0.1-0.3,0.4-0.3L23.7,13.9L23.7,13.9z M25.4,14.2c-0.1,0-0.1,0-0.2-0.1
	C25.1,14,25,13.9,24.8,14c0.3-0.1,0.5-0.1,0.6,0C25.5,14.1,25.5,14.2,25.4,14.2z"/>
<path d="M27.3,12.3c-0.2,0-0.2,0.1-0.1,0.1l0.1,0c0.2,0.1,0.3,0.3,0.4,0.6c0,0,0.1,0,0.2,0l0-0.1c0-0.1,0-0.3-0.1-0.4
	c-0.1-0.1-0.1-0.2-0.2-0.3C27.4,12.4,27.3,12.3,27.3,12.3z"/>
<path d="M25.1,1.2C11.6,1.2,0.7,12.1,0.7,25.6s10.9,24.4,24.4,24.4S49.4,39,49.4,25.6S38.5,1.2,25.1,1.2z M41.1,36.8
	c0,0.1-0.2,0.3-0.3,0.4c-0.2,0.1-0.3,0.3-0.5,0.4c-0.2,0.1-0.4,0.2-0.6,0.4c-0.2,0.1-0.5,0.2-0.6,0.3c-0.2,0.1-0.4,0.2-0.6,0.3
	c-0.3,0.1-0.4,0.2-0.5,0.3c-0.5,0.3-1.1,0.6-1.7,1.1c-0.6,0.5-1.1,0.9-1.5,1.3c-0.2,0.2-0.7,0.3-1.4,0.4c-0.7,0-1.3-0.1-1.8-0.3
	c-0.2-0.1-0.4-0.3-0.6-0.5c-0.2-0.2-0.3-0.4-0.3-0.5c-0.1-0.1-0.2-0.3-0.4-0.4c-0.2-0.1-0.5-0.2-0.9-0.2c-0.6,0-1.5,0-2.6,0
	c-0.3,0-0.6,0-1.1,0c-0.5,0-0.9,0-1.2,0.1c-0.6,0-1.1,0.1-1.6,0.3c-0.5,0.2-0.8,0.4-1.1,0.6c-0.2,0.2-0.5,0.4-0.9,0.6
	c-0.3,0.2-0.7,0.2-1.1,0.2c-0.4,0-1.1-0.2-2.2-0.6c-1.1-0.4-2.1-0.7-2.9-0.9c-0.3-0.1-0.6-0.1-1-0.2c-0.4-0.1-0.8-0.1-1-0.2
	c-0.2,0-0.5-0.1-0.8-0.2c-0.3-0.1-0.5-0.2-0.7-0.3c-0.2-0.1-0.3-0.2-0.3-0.4c-0.1-0.3-0.1-0.8,0.1-1.3c0.2-0.6,0.3-1,0.4-1.1
	c0-0.2,0-0.5-0.1-0.8c-0.1-0.3-0.1-0.6-0.2-0.9c-0.1-0.2-0.1-0.5-0.1-0.7c0-0.2,0.1-0.4,0.2-0.5c0.2-0.2,0.6-0.3,1.1-0.3
	c0.6,0,1-0.1,1.2-0.2c0.4-0.2,0.7-0.5,0.8-0.7c0.2-0.2,0.2-0.6,0.2-1c0.3,1,0.1,1.7-0.6,2.1c-0.4,0.3-1,0.4-1.7,0.3
	c-0.5,0-0.7,0-0.9,0.2c-0.2,0.2-0.1,0.6,0.1,1.1c0,0.1,0.1,0.2,0.2,0.4c0.1,0.2,0.1,0.3,0.2,0.4c0,0.1,0.1,0.2,0.1,0.3
	c0,0.1,0,0.3,0,0.4c0,0.2-0.1,0.5-0.3,1c-0.2,0.5-0.3,0.8-0.3,1c0,0.2,0.3,0.4,0.7,0.5c0.3,0.1,0.8,0.2,1.7,0.4
	c0.9,0.2,1.5,0.3,2,0.4c0.3,0.1,0.8,0.2,1.5,0.4c0.7,0.2,1.2,0.4,1.7,0.5c0.4,0.1,0.8,0.1,1.1,0.1c0.6-0.1,1-0.3,1.3-0.6
	c0.3-0.3,0.4-0.6,0.5-1c0-0.3,0-0.7-0.2-1.2c-0.1-0.4-0.2-0.8-0.4-1c-0.1-0.3-0.3-0.5-0.4-0.7c-1.6-2.6-2.8-4.2-3.4-4.9
	c-0.9-1-1.7-1.3-2.3-0.8c-0.1,0.1-0.2,0-0.3-0.3c0-0.2-0.1-0.5,0-0.8c0-0.4,0.1-0.7,0.2-1c0.1-0.3,0.3-0.6,0.5-0.9
	c0.2-0.3,0.3-0.6,0.4-0.8c0.1-0.3,0.3-0.8,0.5-1.5c0.2-0.7,0.4-1.2,0.6-1.6c0.1-0.4,0.3-0.8,0.6-1.2c0.3-0.5,0.5-0.8,0.8-1.1
	c1.5-1.9,2.3-3.2,2.5-3.9c-0.2-1.5-0.3-3.6-0.3-6.2c0-1.2,0.1-2.2,0.5-3.1c0.3-0.8,1.1-1.5,2.1-2.1c0.5-0.3,1.2-0.4,2.1-0.4
	c0.7,0,1.4,0.1,2.1,0.3C28,6.1,28.6,6.4,29,6.7c0.8,0.6,1.4,1.4,1.8,2.4c0.5,1.1,0.7,2.1,0.6,3c-0.1,1.3,0.1,2.7,0.6,4.3
	c0.5,1.5,1.4,3,2.7,4.4c0.7,0.8,1.4,1.9,2,3.3c0.6,1.4,1,2.7,1.2,3.8c0.1,0.7,0.1,1.2,0.1,1.7c0,0.5-0.1,0.8-0.2,1.1
	c-0.1,0.3-0.3,0.4-0.4,0.4c-0.1,0-0.3,0.2-0.5,0.4c-0.2,0.2-0.4,0.5-0.5,0.7c-0.2,0.2-0.5,0.5-0.8,0.7c-0.4,0.2-0.8,0.3-1.2,0.3
	c-0.2,0-0.5,0-0.6-0.1c-0.2-0.1-0.3-0.1-0.5-0.3c-0.1-0.1-0.2-0.2-0.3-0.3c-0.1-0.1-0.1-0.2-0.2-0.4c-0.1-0.2-0.2-0.3-0.2-0.4
	c-0.3-0.5-0.6-0.7-0.8-0.6c-0.3,0.1-0.4,0.4-0.6,1c-0.1,0.6-0.1,1.2,0.1,2c0.3,0.9,0.3,2.3,0,3.9c-0.1,0.9,0,1.5,0.4,2
	c0.4,0.5,0.9,0.7,1.5,0.7c0.6,0,1.2-0.3,1.7-0.7c0.8-0.7,1.4-1.1,1.8-1.3c0.4-0.2,1.1-0.5,2.1-0.9c0.7-0.2,1.2-0.5,1.6-0.7
	c0.3-0.2,0.4-0.5,0.4-0.7c-0.1-0.2-0.2-0.4-0.5-0.6c-0.3-0.2-0.6-0.3-1-0.5c-0.4-0.1-0.8-0.5-1-1c-0.2-0.5-0.3-1-0.3-1.5
	c0-0.5,0.1-0.8,0.3-1c0,0.4,0.1,0.8,0.2,1.1c0.1,0.3,0.2,0.6,0.3,0.8c0.1,0.2,0.2,0.4,0.4,0.6c0.2,0.2,0.3,0.3,0.4,0.4
	c0.1,0.1,0.3,0.2,0.4,0.3c0.2,0.1,0.3,0.2,0.3,0.2c0.3,0.2,0.5,0.3,0.6,0.5c0.1,0.2,0.2,0.3,0.2,0.5C41.1,36.5,41.1,36.7,41.1,36.8z
	"/>
<path d="M22.7,13c0,0.3,0,0.4,0.2,0.4c0,0,0.1,0,0.1-0.1c0-0.2,0-0.4-0.1-0.6c-0.1-0.2-0.2-0.3-0.2-0.3c-0.1,0-0.2,0-0.2,0.1
	c0,0.1,0.1,0.1,0.1,0.1C22.7,12.7,22.7,12.8,22.7,13z"/>
<path d="M30.1,16.4C30.1,16.4,30.1,16.4,30.1,16.4c0.1,0,0.1,0,0.2,0.1c0,0,0.1,0.1,0.1,0.1c0,0,0.1,0.1,0.1,0.2
	c0.1,0.1,0.1,0.1,0.2,0.2C30.8,17,30.9,17,31,17c0.1,0,0.2,0.1,0.3,0.1c0.1,0,0.1,0.1,0.1,0.2c0,0.1,0,0.3-0.1,0.4
	c-0.1,0.1-0.2,0.2-0.3,0.2c-0.2-0.1-0.5-0.3-0.8-0.6C29.9,16.9,29.9,16.6,30.1,16.4z M27.6,8.6c0.1-0.1,0.1-0.2,0.1-0.2
	c0-0.1,0-0.2,0-0.3c0-0.1,0-0.2,0-0.3c0-0.1,0.1-0.1,0.2-0.2c0.1,0,0.3,0.1,0.5,0.3c0,0,0.1,0.1,0.2,0.1c0.1,0.1,0.1,0.1,0.2,0.1
	c0,0,0.1,0.1,0.1,0.1c0,0.1-0.1,0.1-0.2,0.1c-0.1,0-0.2,0-0.3,0s-0.2,0-0.2,0c-0.1,0-0.2,0.1-0.3,0.2c-0.1,0.1-0.2,0.1-0.2,0.2
	c-0.1,0-0.1,0-0.2,0c-0.1-0.1-0.1-0.1-0.1-0.2C27.5,8.7,27.5,8.7,27.6,8.6z M17.8,23.7c0.1-0.1,0.2-0.2,0.2-0.3
	c0-0.1,0.1-0.2,0.1-0.3c0-0.1,0.1-0.2,0.1-0.3c0-0.1,0.1-0.1,0.1-0.1c0,0,0,0,0.1,0c0,0,0,0.1,0,0.1V23c0,0,0,0,0,0.1
	c0,0,0,0.1,0,0.1c0,0,0,0.1,0,0.1c0,0.1,0,0.1,0,0.1c-0.1,0.1-0.1,0.3-0.3,0.4c-0.1,0.1-0.2,0.2-0.3,0.1
	C17.7,23.9,17.7,23.8,17.8,23.7z M30.9,34.6c0.1,0.7,0.2,1.2,0.1,1.5c0,0.4-0.1,1-0.3,1.8c-0.2,0.8-0.3,1.3-0.3,1.6
	c-0.3,0-0.4-0.1-0.5-0.3c0-0.2,0-0.4,0.1-0.8c0.3-0.9,0.4-1.5,0.5-1.9c0-0.6,0-1-0.2-1c-0.1-0.1-0.4,0.1-0.7,0.6
	c-0.6,1-1.8,1.6-3.6,1.8c-1.6,0.2-2.7,0-3.3-0.7c-0.1-0.1-0.3-0.1-0.4-0.1c-0.1,0.1-0.2,0.1-0.3,0.2c0,0,0,0.1,0,0.1
	c0,0.1,0.1,0.1,0.2,0.2c0.1,0.1,0.2,0.2,0.2,0.3c0.5,0.9,0.5,1.5-0.1,1.9c0-0.6,0-1.1-0.1-1.4c-0.1-0.3-0.3-0.7-0.6-1.1
	c-0.3-0.4-0.5-0.7-0.6-0.9c0.4,0,0.7-0.2,0.9-0.5c0.2-0.3,0.3-0.6,0.3-0.9c0-0.3-0.1-0.6-0.4-0.8c-0.1-0.1-0.7-0.6-1.9-1.5
	c-1.1-0.9-1.8-1.5-2.1-1.8c-0.1-0.1-0.2-0.2-0.5-0.4C17.2,30.3,17,30.1,17,30c-0.6-1.4-0.7-2.5-0.2-3.3l0.1-0.1c0.1,0,0.1,0.1,0,0.4
	c-0.1,0.4-0.1,0.8-0.1,1.1c0.1,0.8,0.3,1.5,0.7,1.9c0.3,0.3,0.5,0.3,0.6-0.1c0.1-0.1,0.1-0.5,0.1-1.2c0-0.7,0-1.1,0-1.4
	c0.1-0.8,0.4-1.7,1-2.8c0.5-1.1,1-1.7,1.3-1.8c-0.2-0.4-0.3-0.8-0.2-1.3c0.1-0.5,0.2-0.8,0.4-1.2c0.2-0.3,0.4-0.7,0.6-1.1
	c0.2-0.4,0.3-0.8,0.3-1.1c0-0.1,0-0.2,0-0.2c0-0.1,0.2,0,0.5,0.4c0.6,0.8,1,1.3,1.3,1.5c0.3,0.2,0.6,0.2,1,0
	c0.4-0.2,0.8-0.5,1.3-0.9c0.5-0.4,1-0.7,1.4-0.9c0,0,0.1,0,0.2-0.1c0.1,0,0.2-0.1,0.2-0.1c0,0,0.1-0.1,0.2-0.1
	c0.1,0,0.1-0.1,0.2-0.1c0,0,0.1-0.1,0.1-0.1c0,0,0.1-0.1,0.1-0.1c0,0,0-0.1,0-0.1c0-0.1-0.1-0.2-0.2-0.2c-0.1,0-0.2,0-0.4,0.1
	c-0.1,0.1-0.3,0.1-0.5,0.2c-0.2,0.1-0.4,0.2-0.6,0.3c-0.2,0.1-0.4,0.2-0.7,0.4s-0.5,0.2-0.7,0.3c-0.3,0.1-0.5,0.1-0.7,0.1
	c-0.6,0-1-0.1-1.4-0.4c-0.2-0.2-0.3-0.3-0.3-0.4c0-0.1,0-0.1,0.2,0c0.7,0.1,1.3,0.1,1.6,0c0.3-0.1,0.8-0.2,1.4-0.5
	c0.1-0.1,0.4-0.2,0.9-0.4c0.5-0.2,0.9-0.4,1.1-0.4c0.2,0,0.3-0.1,0.3-0.2c0.1-0.1,0.1-0.2,0.1-0.2c0-0.1-0.1-0.1-0.1-0.2
	c-0.1-0.1-0.3,0-0.4,0.2c-0.1,0.1-0.2,0.2-0.4,0.4c-0.2,0.1-0.4,0.2-0.6,0.3c-0.2,0.1-0.4,0.1-0.7,0.2c-0.3,0.1-0.4,0.1-0.5,0.1
	c-0.7,0.2-1.4,0.3-2.1,0.3c-0.3,0-0.5-0.1-0.7-0.1c-0.2-0.1-0.3-0.2-0.4-0.3c-0.1-0.1-0.2-0.2-0.3-0.4c-0.1-0.2-0.3-0.3-0.5-0.4
	c-0.1-0.1-0.2-0.2-0.2-0.4c0-0.2,0.1-0.4,0.3-0.5c0,0,0.2-0.1,0.4-0.3c0.3-0.2,0.4-0.3,0.6-0.5c0.1-0.2,0.3-0.4,0.6-0.6
	c0-0.1,0-0.2,0-0.4c0-0.2-0.1-0.5-0.2-0.8C23,12.2,22.8,12,22.6,12c-0.3,0-0.6,0.1-0.7,0.3c-0.1,0.2-0.2,0.5-0.2,0.7
	c0,0.3,0.1,0.5,0.2,0.7c0.1,0.2,0.2,0.3,0.3,0.3c0.1,0,0.2,0,0.1,0.2c-0.1,0.1-0.2,0.2-0.3,0.3c-0.1,0-0.2-0.1-0.3-0.3
	c-0.1-0.2-0.2-0.5-0.3-0.8c-0.1-0.3-0.1-0.5-0.1-0.7c0-0.4,0.1-0.8,0.3-1.2c0.2-0.4,0.5-0.6,0.8-0.6c0.4,0,0.7,0.2,0.9,0.7
	c0.2,0.4,0.3,1,0.3,1.8c0,0.1,0.1,0.1,0.3,0.1c0.2,0,0.4,0,0.7,0c0.3,0,0.5,0.1,0.6,0.2c0,0,0-0.1,0-0.3c-0.2-1.7,0.4-2.6,1.8-2.7
	c0.2,0,0.4,0.1,0.5,0.2c0.1,0.1,0.3,0.2,0.5,0.3c0.2,0.1,0.3,0.3,0.4,0.6c0.1,0.3,0.2,0.6,0.3,1v0.7c0,0.4-0.1,0.7-0.3,0.7
	c-0.3,0.1-0.5,0.1-0.6,0c-0.1-0.1-0.1-0.3,0-0.5c0.1-0.3,0.1-0.7-0.1-1.2c-0.2-0.4-0.5-0.6-1-0.6c-0.3,0-0.6,0.2-0.7,0.5
	c-0.1,0.3-0.2,0.7-0.2,1c0,0.3,0.1,0.5,0.2,0.5c0.1,0,0.3,0.1,0.7,0.3c0.4,0.2,0.7,0.3,0.9,0.4c0.5,0.1,0.8,0.3,0.9,0.5
	c0.1,0.2,0,0.6-0.1,1c-0.1,0.4-0.2,0.8-0.1,1.1c0.1,0.3,0.2,0.6,0.3,0.8c0.1,0.2,0.3,0.5,0.5,0.7c0.2,0.2,0.4,0.6,0.6,1.1
	c0.2,0.6,0.4,1.2,0.6,2.1c0,0,0.1,0.1,0.2,0.1c0.1,0.1,0.2,0.2,0.3,0.3c0.1,0.1,0.2,0.3,0.3,0.5c0.1,0.2,0.3,0.5,0.4,0.9
	c0.1,0.4,0.3,0.9,0.4,1.4c0.1,0.6,0.2,1.3,0.2,2.2c0,0.8,0.1,1.4,0.2,1.7c0.1,0.3,0.4,0.4,0.8,0.4c0.5,0,0.9-0.3,1-0.8
	c0.4-1.6,0.1-3.4-1.1-5.6c-0.4-0.8-0.8-1.4-1.1-1.7c0.5,0.3,1,0.8,1.5,1.5c0.5,0.7,0.8,1.4,0.9,2.1c0,0.1,0.1,0.2,0.1,0.5
	c0.1,0.3,0.1,0.5,0.1,0.5c0,0,0,0.2,0.1,0.4c0,0.2,0.1,0.4,0.1,0.4c0,0.1,0,0.2,0,0.4c0,0.2,0,0.3,0,0.5c0,0.1,0,0.3-0.1,0.4
	c0,0.2-0.1,0.4-0.1,0.5c0,0.2-0.1,0.4-0.2,0.6c0.7,0.3,1.1,0.6,1.1,0.8c-0.3-0.2-0.7-0.4-1.2-0.5c-0.5-0.1-1,0-1.5,0.2
	s-0.7,0.6-0.7,1.1c-0.5,0-0.8,0.1-1,0.4c-0.3,0.3-0.4,0.8-0.5,1.4C30.7,33.3,30.8,33.9,30.9,34.6z M22.5,12.6c0-0.1,0.1-0.2,0.2-0.1
	c0.1,0,0.2,0.1,0.2,0.3c0.1,0.2,0.1,0.4,0.1,0.6c0,0,0,0.1-0.1,0.1c-0.1,0-0.2-0.1-0.2-0.4c0-0.2,0-0.3-0.1-0.3
	C22.5,12.7,22.5,12.7,22.5,12.6z M27.8,13.1L27.8,13.1c-0.1,0.1-0.2,0.1-0.2,0.1c-0.1-0.4-0.2-0.6-0.4-0.6l-0.1,0
	c-0.1-0.1,0-0.1,0.1-0.1c0,0,0.1,0,0.2,0.1c0.1,0.1,0.2,0.1,0.2,0.3C27.7,12.8,27.8,12.9,27.8,13.1z"/>
<path d="M23.1,14.2c0,0.1,0,0.1,0.1,0.1c0.1,0,0.1-0.1,0.2-0.2c0.1-0.1,0.2-0.2,0.3-0.2v0h-0.2C23.2,14,23.1,14.1,23.1,14.2z"/>
<path d="M24.8,14c0.1,0,0.3,0,0.4,0.1c0.1,0.1,0.2,0.1,0.2,0.1c0.1,0,0.1-0.1,0.1-0.2C25.4,13.8,25.2,13.8,24.8,14z"/>
</svg>
