<?xml version="1.0" encoding="utf-8"?>
<!-- Generator: Adobe Illustrator 22.0.0, SVG Export Plug-In . SVG Version: 6.00 Build 0)  -->
<svg version="1.1" id="svg8375" xmlns:svg="http://www.w3.org/2000/svg"
	 xmlns="http://www.w3.org/2000/svg" xmlns:xlink="http://www.w3.org/1999/xlink" x="0px" y="0px" viewBox="0 0 50 65"
	 style="enable-background:new 0 0 50 65;" xml:space="preserve">
<style type="text/css">
	.st0{fill:#4AB767;}
	.st1{fill:#686868;}
</style>
<g>
	<path class="st0" d="M31.5,45.4c1.3,0,0.5,0.8,0.5,0.8s-5.9,7.8-6.7,8.6c-0.6,0.6-1.2-0.1-1.2-0.1l-6.9-8.3c0,0-1-1,0-1H31
		L31.5,45.4z"/>
</g>
<g>
	<path class="st1" d="M12.7,25.5c0,1.7-1.4,3.1-3.1,3.1c-1.7,0-3.1-1.4-3.1-3.1c0-1.7,1.4-3.1,3.1-3.1
		C11.3,22.5,12.7,23.8,12.7,25.5z M30.1,40.4c0.8,1.5,2.7,2,4.2,1.1c1.5-0.8,2-2.7,1.1-4.2c-0.8-1.5-2.7-2-4.2-1.1
		C29.8,37.1,29.3,39,30.1,40.4z M35.4,13.7c0.8-1.5,0.3-3.3-1.1-4.2c-1.5-0.8-3.3-0.3-4.2,1.1c-0.8,1.5-0.3,3.3,1.1,4.2
		C32.7,15.6,34.6,15.1,35.4,13.7z M25.1,16.8c4.6,0,8.3,3.5,8.7,8l4.4-0.1c-0.2-3.3-1.7-6.3-3.9-8.5c-1.2,0.5-2.5,0.4-3.7-0.3
		c-1.2-0.7-1.9-1.8-2.1-3.1c-1.1-0.3-2.3-0.5-3.5-0.5c-2.1,0-4.1,0.5-5.8,1.4l2.2,3.9C22.5,17.1,23.7,16.8,25.1,16.8z M16.3,25.5
		c0-3,1.5-5.6,3.7-7.2l-2.3-3.8c-2.6,1.8-4.6,4.4-5.4,7.6c1,0.8,1.6,2,1.6,3.4c0,1.4-0.6,2.6-1.6,3.4c0.8,3.2,2.8,5.8,5.4,7.6
		l2.3-3.8C17.8,31.1,16.3,28.5,16.3,25.5z M25.1,34.3c-1.3,0-2.6-0.3-3.7-0.8l-2.2,3.9c1.8,0.9,3.7,1.4,5.8,1.4
		c1.2,0,2.4-0.2,3.5-0.5c0.2-1.2,0.9-2.4,2.1-3.1c1.2-0.7,2.5-0.7,3.7-0.3c2.2-2.2,3.7-5.2,3.9-8.5l-4.4-0.1
		C33.4,30.8,29.6,34.3,25.1,34.3z"/>
</g>
</svg>
