<?xml version="1.0" encoding="utf-8"?>
<!-- Generator: Adobe Illustrator 22.0.0, SVG Export Plug-In . SVG Version: 6.00 Build 0)  -->
<svg version="1.1" id="svg8375" xmlns:svg="http://www.w3.org/2000/svg"
	 xmlns="http://www.w3.org/2000/svg" xmlns:xlink="http://www.w3.org/1999/xlink" x="0px" y="0px" viewBox="0 0 50 65"
	 style="enable-background:new 0 0 50 65;" xml:space="preserve">
<style type="text/css">
	.st0{fill:#4AB767;}
	.st1{fill:#686868;}
</style>
<g>
	<path class="st0" d="M31.5,45.4c1.3,0,0.5,0.8,0.5,0.8s-5.9,7.8-6.7,8.6c-0.6,0.6-1.2-0.1-1.2-0.1l-6.9-8.3c0,0-1-1,0-1H31
		L31.5,45.4z"/>
</g>
<g id="XMLID_1_">
	<path class="st1" d="M21,19.1c1.1,0.2-5.1,5.7-5.2,4.4C15.6,20.3,18,18.6,21,19.1z"/>
	<path class="st1" d="M15.2,24.9c1.7-0.5,0.7,7-0.7,6.4C12.9,30,12.4,26.5,15.2,24.9z"/>
	<path class="st1" d="M19.8,33.4c0.9,1.2,1.4,3.6,0.6,4.3c-0.9,0.6-2.9,0.3-4.3-1.8c-1-1.8-0.9-3.6-0.1-4.1
		C17,31.1,18.7,32,19.8,33.4z"/>
	<path class="st1" d="M29.1,39.2c-0.1,0.5-2,2.1-3.8,2.1c-1.9,0.1-3.7-1.6-3.7-2c0-0.7,2.3-1.4,3.9-1.4C27,37.8,29.1,38.5,29.1,39.2
		z"/>
	<path class="st1" d="M25.2,29.6c2.2,0,3.9,1.6,3.9,3.5s-1.6,3.5-3.7,3.5c-2,0-3.9-1.6-3.9-3.5S23.2,29.6,25.2,29.6z"/>
	<path class="st1" d="M34.9,24.8c2.8,1.6,2.3,5.2,0.7,6.4C34.3,31.9,33.1,24.4,34.9,24.8z"/>
	<path class="st1" d="M30.9,32.8c1.3-1.6,2.9-2.6,3.8-1.8c0.6,1,1,3.5-0.2,5c-1.7,2.3-3.9,2.3-4.6,1.7C29,36.8,29.6,34.2,30.9,32.8z
		"/>
	<path class="st1" d="M32.5,24.5c1.2,1.9,0.9,4.2-0.6,5.2c-1.6,0.9-3.9,0.3-5.1-1.6c-1.3-1.8-0.9-4.2,0.6-5.2
		C29,21.9,31.3,22.6,32.5,24.5z"/>
	<path class="st1" d="M34.4,23.6c-0.1,1.3-6.4-4.2-5.2-4.3C32.1,18.7,34.6,20.4,34.4,23.6z"/>
	<path class="st1" d="M33.5,12.2c-2.5,0.9-4.8,1.9-6.5,3.5c-1.9-1.2-0.6-3.8,0.6-4.8c0,0.3,0.1,0.4,0.1,0.6c0.4-0.4,0.6-0.7,1-1.2
		c0,0.3-0.1,0.4,0.1,0.6c0.3-0.4,0.6-0.6,1-0.9c-0.3,0.4,0,0.6,0.1,0.6c0.4-0.3,0.6-0.6,1.3-0.7c-0.1,0.3-0.4,0.4-0.1,0.6
		c0.4-0.3,0.6-0.4,1.6-0.6c-0.1,0.3-0.6,0.4-0.4,0.6c0.4-0.1,0.9-0.3,1.4-0.4c-0.3,0.3-0.6,0.4-0.3,0.6c0.6-0.1,1-0.4,1.7-0.1
		L34.7,11c0,0,0.9,0,1.6,0c-0.3,0.4-0.6,0.6-0.6,1.2c0,0,0.4,0,0.6,0c-0.3,0.7-0.7,0.9-0.9,1.2c0.1,0.1,0.4,0.1,0.7,0
		c-0.3,0.6-0.6,0.7-1,1.2c0.1,0.1,0.3,0.1,0.6,0c-0.4,0.4-0.7,0.6-1.2,1c0.1,0.1,0.4,0.1,0.6,0.1c-0.4,0.4-1,0.6-1.6,0.9
		c0.1,0.3,0.4,0.1,0.6,0.1c-0.4,0.3-1,0.6-1.6,0.6c0.1,0.1,0.3,0.3,0.6,0.3c-0.6,0.4-1.6,0.1-1.8,0.4c0,0.1,0.3,0.3,0.4,0.4
		c-1,0-3.8,0-4.2-2C28.4,15.1,30.3,13.8,33.5,12.2z"/>
	<path class="st1" d="M14.3,11c0.6,0,1.6,0,1.6,0l-0.4-0.6c0.6-0.1,1.3,0,1.7,0.1c0.3-0.1,0-0.4-0.3-0.6c0.6,0.1,1,0.3,1.4,0.4
		c0.3-0.3-0.1-0.4-0.4-0.6c0.9,0.1,1.2,0.4,1.6,0.6c0.3-0.3,0-0.4-0.1-0.6c0.6,0.3,0.9,0.6,1.3,0.7c0.1-0.1,0.3-0.3,0.1-0.6
		c0.3,0.3,0.6,0.6,0.9,0.9c0.3-0.1,0.1-0.4,0.1-0.6c0.4,0.4,0.7,0.7,1,1.2c0.1,0,0.1-0.3,0.1-0.6c1,1,2.6,3.6,0.4,4.6
		c-1.8-1.6-4.1-2.7-6.5-3.5c3.2,1.7,5.1,2.9,6.1,4.1c-0.6,2-3.2,2.2-4.2,2c0.3-0.1,0.4-0.3,0.4-0.4c-0.1-0.1-0.9,0-1.6-0.3
		c0.3,0,0.4-0.1,0.6-0.3c-0.6-0.3-1.3-0.4-1.7-0.7c0.3,0,0.4,0,0.6-0.1c-0.6-0.3-1-0.6-1.6-0.9c0.3,0,0.6,0,0.6-0.1
		c-0.4-0.3-0.7-0.6-1.2-0.9c0.4,0,0.6,0,0.6,0c-0.4-0.6-0.7-0.7-1-1.3c0.3,0.1,0.6,0.1,0.7,0c-0.1-0.3-0.7-0.4-1-1
		c0.3,0,0.6,0,0.6,0C14.7,11.6,14.4,11.2,14.3,11z"/>
	<path class="st1" d="M25.3,18.3c1.6,0,3.5,1.2,3.5,2.3c0,1-1.4,1.8-3.5,1.8c-2,0-3.5-1-3.5-1.9C21.8,19.6,23.4,18.3,25.3,18.3z"/>
	<path class="st1" d="M23.1,23c1.6,1,1.8,3.3,0.6,5.2c-1.2,1.9-3.5,2.6-5.1,1.6c-1.5-0.9-1.7-3.3-0.6-5.2C19.3,22.7,21.5,22,23.1,23
		z"/>
</g>
</svg>
