<?xml version="1.0" encoding="utf-8"?>
<!-- Generator: Adobe Illustrator 22.0.0, SVG Export Plug-In . SVG Version: 6.00 Build 0)  -->
<svg version="1.1" id="svg8375" xmlns:svg="http://www.w3.org/2000/svg"
	 xmlns="http://www.w3.org/2000/svg" xmlns:xlink="http://www.w3.org/1999/xlink" x="0px" y="0px" viewBox="0 0 50 65"
	 style="enable-background:new 0 0 50 65;" xml:space="preserve">
<style type="text/css">
	.st0{fill:#91DC5A;}
</style>
<g>
	<path class="st0" d="M31.5,52.4c1.3,0,0.5,0.8,0.5,0.8s-5.9,7.8-6.7,8.6c-0.6,0.6-1.2-0.1-1.2-0.1l-6.9-8.3c0,0-1-1,0-1
		c0,0,13.8,0,13.8,0L31.5,52.4z"/>
</g>
<path d="M25.1,1.2C11.6,1.2,0.7,12.1,0.7,25.6s10.9,24.4,24.4,24.4S49.4,39,49.4,25.6S38.5,1.2,25.1,1.2z M27.8,9.6
	c0,0.3,0.1,0.4,0.1,0.6c0.4-0.4,0.7-0.8,1.1-1.3c0,0.3-0.1,0.4,0.1,0.7c0.3-0.4,0.6-0.7,1.1-1c-0.3,0.4,0,0.6,0.1,0.7
	c0.4-0.3,0.7-0.6,1.4-0.8c-0.1,0.3-0.4,0.4-0.1,0.7c0.4-0.3,0.7-0.4,1.7-0.7c-0.1,0.3-0.6,0.4-0.4,0.7c0.4-0.1,1-0.3,1.5-0.4
	c-0.3,0.3-0.6,0.4-0.3,0.6c0.6-0.1,1.1-0.4,1.8-0.1l-0.4,0.4c0,0,1,0,1.7,0c-0.3,0.4-0.6,0.7-0.7,1.3c0,0,0.4,0,0.7,0
	c-0.3,0.8-0.8,1-1,1.3c0.1,0.1,0.4,0.1,0.8,0c-0.3,0.6-0.7,0.8-1.1,1.3c0.1,0.1,0.3,0.1,0.7,0c-0.4,0.4-0.8,0.7-1.3,1.1
	c0.1,0.1,0.4,0.1,0.7,0.1c-0.4,0.4-1.1,0.7-1.7,1c0.1,0.3,0.4,0.1,0.6,0.1c-0.4,0.3-1.1,0.6-1.7,0.7c0.1,0.1,0.3,0.3,0.6,0.3
	c-0.7,0.4-1.7,0.1-2,0.4c0,0.1,0.3,0.3,0.4,0.4c-1.1,0-4.1,0-4.6-2.2c1.1-1.3,3.1-2.7,6.6-4.5c-2.7,1-5.2,2.1-7.1,3.8
	C25,13.5,26.5,10.7,27.8,9.6z M29.5,18.7c3.2-0.6,5.9,1.3,5.7,4.7C35.1,24.8,28.3,18.8,29.5,18.7z M32.4,30.1
	c-1.7,1-4.2,0.3-5.5-1.7c-1.4-2-1-4.6,0.7-5.7c1.7-1.1,4.2-0.4,5.5,1.7C34.4,26.5,34.1,29,32.4,30.1z M25.3,17.7
	c1.7,0,3.8,1.3,3.8,2.5c0,1.1-1.5,2-3.8,2c-2.2,0-3.8-1.1-3.8-2.1S23.3,17.7,25.3,17.7z M17.4,24.5c1.4-2,3.8-2.8,5.5-1.7
	c1.7,1.1,2,3.6,0.7,5.7c-1.3,2.1-3.8,2.8-5.5,1.7C16.5,29.2,16.2,26.6,17.4,24.5z M14.9,23.3c-0.1-3.4,2.5-5.3,5.7-4.8
	C21.8,18.7,15.1,24.7,14.9,23.3z M13.4,9.7c0.7,0,1.7,0,1.7,0l-0.4-0.6c0.7-0.1,1.4,0,1.8,0.1c0.3-0.1,0-0.4-0.3-0.6
	c0.6,0.1,1.1,0.3,1.5,0.4c0.3-0.3-0.1-0.4-0.4-0.7c1,0.1,1.3,0.4,1.7,0.7c0.3-0.3,0-0.4-0.1-0.7c0.7,0.3,1,0.6,1.4,0.8
	c0.1-0.1,0.3-0.3,0.1-0.7c0.3,0.3,0.7,0.6,1,1c0.3-0.1,0.1-0.4,0.1-0.7c0.4,0.4,0.8,0.8,1.1,1.3c0.1,0,0.1-0.3,0.1-0.6
	c1.1,1.1,2.8,3.9,0.4,5c-2-1.7-4.5-2.9-7.1-3.8c3.5,1.8,5.5,3.2,6.6,4.5c-0.6,2.2-3.5,2.4-4.6,2.2c0.3-0.1,0.4-0.3,0.4-0.4
	c-0.1-0.1-1,0-1.7-0.3c0.3,0,0.4-0.1,0.6-0.3c-0.7-0.3-1.4-0.4-1.8-0.8c0.3,0,0.4,0,0.7-0.1c-0.6-0.3-1.1-0.6-1.7-1
	c0.3,0,0.6,0,0.7-0.1c-0.4-0.3-0.8-0.7-1.3-1c0.4,0,0.6,0,0.7,0c-0.4-0.6-0.8-0.8-1.1-1.4c0.3,0.1,0.6,0.1,0.8,0
	c-0.1-0.3-0.8-0.4-1.1-1.1c0.3,0,0.7,0,0.7,0C13.8,10.4,13.5,10,13.4,9.7z M13.5,31.8c-1.7-1.4-2.2-5.2,0.8-7
	C16.2,24.3,15.1,32.4,13.5,31.8z M20,38.8c-1,0.6-3.2,0.3-4.7-2c-1.1-2-1-3.9-0.1-4.5c1.1-0.7,2.9,0.3,4.2,1.8
	C20.4,35.4,20.9,38,20,38.8z M25.3,42.7c-2.1,0.1-4-1.7-4-2.2c0-0.8,2.5-1.5,4.2-1.5c1.7-0.1,3.9,0.6,3.9,1.4
	C29.3,40.9,27.2,42.7,25.3,42.7z M25.4,37.5c-2.2,0-4.2-1.7-4.2-3.8s1.8-3.8,4-3.8c2.4,0,4.2,1.7,4.2,3.8S27.7,37.5,25.4,37.5z
	 M35.3,36.8c-1.8,2.5-4.2,2.5-5,1.8c-1-0.8-0.3-3.6,1.1-5.2c1.4-1.7,3.1-2.8,4.1-2C36.2,32.5,36.6,35.2,35.3,36.8z M36.6,31.7
	c-1.5,0.7-2.8-7.4-0.8-7C38.8,26.4,38.3,30.3,36.6,31.7z"/>
</svg>
