<?xml version="1.0" encoding="UTF-8"?>
<svg width="307px" height="186px" viewBox="0 0 307 186" version="1.1" xmlns="http://www.w3.org/2000/svg" xmlns:xlink="http://www.w3.org/1999/xlink">
    <!-- Generator: Sketch 50.2 (55047) - http://www.bohemiancoding.com/sketch -->
    <title>screeny-image</title>
    <desc>Created with Sketch.</desc>
    <defs></defs>
    <g id="Page-1" stroke="none" stroke-width="1" fill="none" fill-rule="evenodd">
        <g id="hf-desktop_1-2_image-default" transform="translate(-39.000000, -326.000000)">
            <g id="screeny-image" transform="translate(20.000000, 326.000000)">
                <g id="Group-4">
                    <g id="screeny">
                        <g stroke-width="1" fill-rule="evenodd" transform="translate(24.000000, 53.000000)">
                            <rect id="Rectangle" stroke="#E6E6E6" stroke-width="10" x="0" y="0" width="222" height="128" rx="4"></rect>
                            <path d="M25,14 L15,31" id="Line" stroke="#E6E6E6" stroke-width="5" stroke-linecap="round"></path>
                            <path d="M38,17 L23,43" id="Line" stroke="#E6E6E6" stroke-width="5" stroke-linecap="round"></path>
                            <path d="M160,49.888239 C159.997058,40.0068656 151.94311,32.0029242 142,32 C132.05689,32.0029242 124.002942,40.0068656 124,49.888239 C124,52.710235 126.30407,55 129.143698,55 C131.983325,55 134.287396,52.710235 134.287396,49.888239 C134.293281,45.6567067 137.74203,42.2293703 142,42.2205979 C146.25797,42.2293703 149.706719,45.6567067 149.712604,49.888239 C149.712604,52.710235 152.016675,55 154.856302,55 C157.69593,55 160,52.710235 160,49.888239 Z" id="Shape" fill="#E6E6E6" fill-rule="nonzero"></path>
                            <path d="M98,49.888239 C97.9970573,40.0068656 89.9453938,32.0029242 79.9985287,32 C70.0546062,32.0029242 62.0029427,40.0068656 62,49.888239 C62,52.710235 64.3013165,55 67.1411757,55 C69.9839776,55 72.2852941,52.710235 72.2852941,49.888239 C72.2941221,45.6567067 75.7402108,42.2293703 79.9985287,42.2205979 C84.2597892,42.2293703 87.7058779,45.6567067 87.7147059,49.888239 C87.7147059,52.710235 90.0160224,55 92.858825,55 C95.6986843,55 98,52.710235 98,49.888239 Z" id="Shape" fill="#E6E6E6" fill-rule="nonzero"></path>
                            <circle id="Oval" fill="#FFFFFF" cx="206.5" cy="128.5" r="2.5"></circle>
                        </g>
                        <path d="M245.999977,5 C204.584782,5 171,27.3596794 171,54.9245473 C171,74.3421635 187.656603,91.1345543 211.917308,99.3723309 C211.690995,112.860559 198.881705,123.361461 198.881705,123.361461 L239.346388,104.622782 C241.518989,104.758569 243.736852,104.803832 245.999977,104.803832 C287.415173,104.803832 320.999954,82.4441526 320.999954,54.9245473 C321.045217,27.3596794 287.460435,5 245.999977,5 Z" id="Shape" stroke="#FFFFFF" stroke-width="10" fill="#E6E6E6" fill-rule="nonzero"></path>
                        <path d="M91.5666805,142.146845 C96.4294196,146.844299 102.930754,150.494926 110.484208,153.042697 C118.040609,155.581623 126.672707,157 135.852968,157 C145.142273,157 153.871625,155.549186 161.492863,152.948336 C169.111154,150.341587 175.644906,146.611343 180.484068,141.801833 C182.499895,139.793694 182.505788,136.529362 180.498804,134.515325 C178.488871,132.498339 175.229363,132.49539 173.213537,134.503529 C169.836144,137.882865 164.622698,140.999757 158.168518,143.193672 C151.720232,145.396433 144.060682,146.696859 135.852968,146.696859 C127.74251,146.696859 120.168425,145.42887 113.767293,143.27329 C107.36616,141.126556 102.15861,138.074538 98.7340627,134.742383 C96.6917126,132.760783 93.4292568,132.813861 91.4517429,134.860335 C89.471282,136.90386 89.5243304,140.168193 91.5666805,142.146845 Z" id="Shape" fill="#E6E6E6" fill-rule="nonzero"></path>
                    </g>
                    <g id="Group-2" transform="translate(217.000000, 25.000000)" fill="#FFFFFF">
                        <g id="images-solid" fill-rule="nonzero">
                            <path d="M57,35.5530303 L57,5.61363636 C57,2.51327178 54.4871481,0 51.3873016,0 L6.48571429,0 C3.38586772,0 0.873015873,2.51327178 0.873015873,5.61363636 L0.873015873,35.5530303 C0.873015873,38.6533949 3.38586772,41.1666667 6.48571429,41.1666667 L51.3873016,41.1666667 C54.4871481,41.1666667 57,38.6533949 57,35.5530303 Z M20.3015873,12.4583333 C20.3015873,15.7490712 17.6437632,18.4166667 14.3650794,18.4166667 C11.0863955,18.4166667 8.42857143,15.7490712 8.42857143,12.4583333 C8.42857143,9.16759549 11.0863955,6.5 14.3650794,6.5 C17.6437632,6.5 20.3015873,9.16759549 20.3015873,12.4583333 Z M8.42857143,29.8592304 L15.0675406,23.0461873 C15.6279334,22.4711009 16.5365687,22.4711009 17.0970812,23.0461873 L21.8225108,27.8956406 L38.0285795,11.2646481 C38.5889724,10.6895617 39.4976077,10.6895617 40.0581201,11.2646481 L50.5238095,22.004871 L50.5238095,35.75 L8.42857143,35.75 L8.42857143,29.8592304 Z" id="Shape"></path>
                        </g>
                        <path d="M38.8320226,57.429241 L32.9977977,57.429241 L32.9977977,64.5715402 C32.9977977,65.3607642 32.3569102,66 31.5656468,66 L28.7013449,66 C27.9100815,66 27.269194,65.3607642 27.269194,64.5715402 L27.269194,57.429241 L21.4349691,57.429241 C20.1567744,57.429241 19.5185721,55.8856116 20.4261977,54.9865747 L29.0566974,46.4425994 C29.6519351,45.8524669 30.6132664,45.8524669 31.2085041,46.4425994 L39.8390037,54.9865747 C40.7475245,55.8856116 40.1102173,57.429241 38.8320226,57.429241 Z" id="Path"></path>
                    </g>
                </g>
            </g>
        </g>
    </g>
</svg>