<?xml version="1.0" encoding="utf-8"?>
<!-- Generator: Adobe Illustrator 22.0.0, SVG Export Plug-In . SVG Version: 6.00 Build 0)  -->
<svg version="1.1" id="svg8375" xmlns:svg="http://www.w3.org/2000/svg"
	 xmlns="http://www.w3.org/2000/svg" xmlns:xlink="http://www.w3.org/1999/xlink" x="0px" y="0px" viewBox="0 0 50 65"
	 style="enable-background:new 0 0 50 65;" xml:space="preserve">
<style type="text/css">
	.st0{fill:#686868;}
	.st1{fill:#4AB767;}
</style>
<g>
	<g id="XMLID_1_">
		<polygon class="st0" points="21.8,26.4 21.8,37.3 10.6,35.7 10.6,26.3 		"/>
		<polygon class="st0" points="38.1,26.5 38.1,39.5 23.2,37.4 23.2,26.5 		"/>
		<polygon class="st0" points="38,11.9 38,25 23.1,25.1 23.1,14.1 		"/>
		<polygon class="st0" points="21.8,14.3 21.8,25.1 10.6,25.2 10.6,15.8 		"/>
	</g>
</g>
<g>
	<path class="st1" d="M31.5,45.4c1.3,0,0.5,0.8,0.5,0.8s-5.9,7.8-6.7,8.6c-0.6,0.6-1.2-0.1-1.2-0.1l-6.9-8.3c0,0-1-1,0-1H31
		L31.5,45.4z"/>
</g>
</svg>
