<?xml version="1.0" encoding="utf-8"?>
<!-- Generator: Adobe Illustrator 22.0.0, SVG Export Plug-In . SVG Version: 6.00 Build 0)  -->
<svg version="1.1" id="svg8375" xmlns:svg="http://www.w3.org/2000/svg"
	 xmlns="http://www.w3.org/2000/svg" xmlns:xlink="http://www.w3.org/1999/xlink" x="0px" y="0px" viewBox="0 0 50 65"
	 style="enable-background:new 0 0 50 65;" xml:space="preserve">
<style type="text/css">
	.st0{fill:#91DC5A;}
</style>
<g>
	<path d="M25.1,1.2C11.6,1.2,0.7,12.1,0.7,25.6s10.9,24.4,24.4,24.4S49.4,39,49.4,25.6S38.5,1.2,25.1,1.2z M23.8,13.9l14.9-2.2v13.1
		l-14.9,0.1V13.9z M11.3,35.5l0-9.4l11.2,0.1l0,10.9L11.3,35.5z M11.3,25l0-9.4l11.2-1.5l0,10.8L11.3,25z M38.8,39.3l-14.9-2.1
		l0-10.9l14.9,0L38.8,39.3z"/>
</g>
<g>
	<path class="st0" d="M31.5,52.4c1.3,0,0.5,0.8,0.5,0.8s-5.9,7.8-6.7,8.6c-0.6,0.6-1.2-0.1-1.2-0.1l-6.9-8.3c0,0-1-1,0-1
		c0,0,13.8,0,13.8,0L31.5,52.4z"/>
</g>
</svg>
