<svg xmlns="http://www.w3.org/2000/svg" width="60" height="60" viewBox="0 0 60 60">
    <g fill="none" fill-rule="evenodd">
        <path d="M0 0h60v60H0z"/>
        <path fill="#EA4335" d="M7.244 10.452C21.19-5.78 47.05-2.575 56.716 16.384c-6.805.003-17.461-.002-23.232 0-4.186.002-6.889-.094-9.815 1.447-3.441 1.811-6.037 5.169-6.944 9.112l-9.48-16.491z"/>
        <path fill="#4285F4" d="M20.02 30c0 5.5 4.472 9.975 9.97 9.975S39.96 35.5 39.96 30c0-5.5-4.472-9.976-9.97-9.976s-9.97 4.475-9.97 9.976z"/>
        <path fill="#34A853" d="M33.86 43.057c-5.597 1.663-12.146-.181-15.733-6.374A9769.537 9769.537 0 0 1 4.865 13.622C-6.652 31.275 3.275 55.33 24.183 59.436l9.677-16.379z"/>
        <path fill="#FBBC05" d="M39.252 20.023c4.661 4.335 5.676 11.355 2.519 16.798-2.38 4.1-9.971 16.915-13.65 23.12 21.542 1.327 37.247-19.786 30.153-39.918H39.252z"/>
    </g>
</svg>
