<svg xmlns="http://www.w3.org/2000/svg" width="93" height="60" viewBox="0 0 93 60">
    <path fill="#54B570" fill-rule="evenodd" d="M89.098 56.518c0 .102-.054.16-.1.192l-.165.017c-9.583-3.409-22.776-5.284-34.259-3.245 7.951-3.632 17.074-4.422 25.623-2.022a3.436 3.436 0 0 0 3.023-.57 3.442 3.442 0 0 0 1.398-2.782V11.513l4.25.163c.128 0 .23.102.23.229v44.613zm-85.548.209l-.16-.02-.007.003a.223.223 0 0 1-.1-.192V11.905c0-.129.102-.229.295-.23l4.194-.162v36.595a3.45 3.45 0 0 0 1.395 2.782c.874.658 1.98.863 3.026.57 8.551-2.4 17.67-1.61 25.619 2.02-11.48-2.04-24.674-.162-34.262 3.247zM11.054 5.16c0-.1.063-.199.142-.224a37.278 37.278 0 0 1 33.358 5.705v42.834c-6.665-4.372-14.496-6.658-22.444-6.658-3.664 0-7.352.486-10.962 1.476a.224.224 0 0 1-.094-.185V5.16zm70.136-.224c.08.024.145.124.145.224v42.948c0 .102-.06.16-.244.22-11.304-3.175-23.521-1.238-33.256 5.147V10.641A37.274 37.274 0 0 1 81.19 4.936zm7.745 3.487h-.002l-4.315-.168V5.16a3.514 3.514 0 0 0-2.442-3.33 40.563 40.563 0 0 0-35.982 5.988A40.564 40.564 0 0 0 10.213 1.83a3.472 3.472 0 0 0-2.441 3.33v3.095l-4.258.166C1.575 8.421 0 9.983 0 11.905v44.613c0 1.142.564 2.21 1.508 2.864.59.408 1.285.618 1.98.618.397 0 .793-.068 1.169-.207 11.633-4.14 28.783-5.956 40.875-.693l.658.287.66-.287c12.1-5.263 29.247-3.445 40.86.688a3.476 3.476 0 0 0 3.165-.406 3.487 3.487 0 0 0 1.506-2.864V11.905c0-1.922-1.574-3.482-3.446-3.482z"/>
</svg>
