<svg xmlns="http://www.w3.org/2000/svg" xmlns:xlink="http://www.w3.org/1999/xlink" width="67" height="60" viewBox="0 0 67 60">
    <defs>
        <path id="a" d="M0 .058h66.152V60H0z"/>
    </defs>
    <g fill="none" fill-rule="evenodd">
        <g transform="translate(.754)">
            <mask id="b" fill="#fff">
                <use xlink:href="#a"/>
            </mask>
            <path fill="#54B570" d="M62.35 50.809c0 2.908-2.33 5.274-5.196 5.274H8.998c-2.865 0-5.196-2.366-5.196-5.274v-8.815c.138.104.281.206.43.305 2.457 1.65 4.953 1.775 6.264 1.692H57.83c.116 0 .232-.01.347-.032a10.037 10.037 0 0 0 4.173-1.844v8.694zM11.398 8.054c.665-2.47 2.903-4.195 5.443-4.195h31.185a5.62 5.62 0 0 1 5.377 3.969l8.854 28.214a6.472 6.472 0 0 1-1.66 2.542 6.351 6.351 0 0 1-2.955 1.548H10.434a1.85 1.85 0 0 0-.131.005 6.38 6.38 0 0 1-3.974-1.057c-1.426-.957-2.124-2.278-2.442-3.108l7.511-27.918zM66.061 35.45L57.026 6.656C55.779 2.675 52.162 0 48.026 0H16.841c-4.25 0-7.996 2.894-9.11 7.037L.066 35.527h.001a1.955 1.955 0 0 0-.067.509v14.773c0 5.036 4.036 9.133 8.998 9.133h48.156c4.962 0 8.998-4.097 8.998-9.133V36.036c0-.204-.033-.4-.091-.586z" mask="url(#b)"/>
        </g>
        <path fill="#54B570" d="M13.475 48c-.936 0-1.696.768-1.696 1.714 0 .947.76 1.715 1.696 1.715.937 0 1.697-.768 1.697-1.715 0-.946-.76-1.714-1.697-1.714M25.349 48h-6.785c-.937 0-1.696.768-1.696 1.714 0 .947.76 1.715 1.696 1.715h6.785c.937 0 1.696-.768 1.696-1.715 0-.946-.76-1.714-1.696-1.714"/>
    </g>
</svg>
