<svg xmlns="http://www.w3.org/2000/svg" width="48" height="60" viewBox="0 0 48 60">
    <g fill="none" fill-rule="nonzero">
        <path fill="#000" d="M43.611 27.255l-.433-.761c.012-5.436-2.507-7.65-5.448-9.338.89-.234 1.804-.421 2.062-1.546 1.535-.387 1.851-1.101 2.003-1.851.399-.27 1.734-1.02 1.594-2.308.75-.515 1.171-1.183.949-2.12.808-.88 1.019-1.606.68-2.273.971-1.207.538-1.828.128-2.449.726-1.312.082-2.718-1.945-2.483-.808-1.184-2.565-.914-2.835-.914-.304-.375-.703-.703-1.933-.551-.796-.715-1.687-.586-2.612-.246-1.09-.855-1.816-.164-2.648.094C31.849.087 31.544.66 30.9.907c-1.44-.305-1.886.352-2.577 1.043l-.809-.012c-2.179 1.265-3.257 3.843-3.643 5.167-.387-1.324-1.465-3.902-3.644-5.167l-.808.012c-.691-.691-1.137-1.348-2.577-1.043-.656-.234-.95-.82-2.273-.398-.54-.164-1.043-.516-1.629-.504-.304.012-.644.117-1.019.41-.925-.351-1.816-.468-2.613.246-1.23-.152-1.64.164-1.933.55-.269 0-2.027-.269-2.835.915-2.027-.235-2.66 1.171-1.933 2.483-.41.633-.843 1.254.13 2.449-.34.667-.13 1.394.679 2.273-.211.937.21 1.605.949 2.12-.141 1.289 1.195 2.039 1.593 2.308.152.75.469 1.453 2.003 1.851.258 1.113 1.172 1.312 2.062 1.546-2.94 1.688-5.46 3.902-5.448 9.338l-.433.761c-3.374 2.015-6.408 8.517-1.664 13.79.305 1.651.832 2.834 1.29 4.146.69 5.296 5.212 7.768 6.396 8.06 1.745 1.313 3.608 2.555 6.115 3.422C18.657 59.086 21.235 60 23.812 60h.117c2.59 0 5.155-.914 7.522-3.327 2.519-.867 4.37-2.11 6.115-3.421 1.195-.293 5.706-2.765 6.397-8.06.457-1.313.984-2.496 1.289-4.148 4.756-5.283 1.722-11.774-1.64-13.789z"/>
        <path fill="#C41949" d="M41.01 26.318c-.175 2.19-11.586-7.627-9.618-7.955 5.354-.879 9.794 2.25 9.618 7.955zM35.973 37.225c-2.87 1.851-7.006.656-9.232-2.671-2.226-3.327-1.71-7.522 1.16-9.373 2.87-1.85 7.006-.655 9.232 2.672 2.226 3.327 1.71 7.52-1.16 9.372z"/>
        <path fill="#6BC048" d="M28.018 3.45c.094.491.21.796.34.89.632-.68 1.148-1.371 1.968-2.027 0 .386-.2.796.293 1.101.433-.586 1.03-1.113 1.816-1.558-.375.656-.07.855.14 1.125.598-.516 1.172-1.031 2.273-1.441-.305.363-.726.726-.281 1.148.621-.387 1.242-.773 2.706-1.043-.328.363-1.019.738-.597 1.101.773-.293 1.64-.515 2.589-.632-.457.375-.832.738-.457 1.03.832-.257 1.98-.597 3.093-.304l-.703.715c-.082.093 1.652.07 2.8.093-.422.586-.844 1.137-1.09 2.132.117.118.68.047 1.219 0-.551 1.16-1.5 1.442-1.722 1.945.34.258.796.188 1.312.012-.399.808-1.219 1.37-1.875 2.027.164.117.457.187 1.137.105a10.52 10.52 0 0 1-2.203 1.757c.152.176.68.176 1.172.188-.785.761-1.793 1.16-2.742 1.664.469.316.809.246 1.172.246-.668.55-1.805.831-2.859 1.171.2.316.399.398.832.48-1.113.621-2.718.34-3.163.656.105.317.422.516.785.68-1.804.105-6.713-.07-7.662-3.784 1.84-2.027 5.202-4.393 10.977-7.334-4.498 1.5-8.552 3.514-11.95 6.268-4.018-1.863-1.265-6.549.68-8.412z"/>
        <path fill="#C41949" d="M23.988 16.875c2.835-.035 6.338 2.086 6.326 4.065-.012 1.758-2.46 3.175-6.303 3.152-3.76-.047-6.29-1.781-6.28-3.492 0-1.394 3.07-3.807 6.257-3.725z"/>
        <path fill="#6BC048" d="M9.578 15.376c.433-.083.633-.176.832-.48-1.055-.329-2.191-.622-2.859-1.172.363 0 .703.082 1.172-.246-.95-.504-1.957-.902-2.742-1.664.492-.012 1.02 0 1.172-.187A10.519 10.519 0 0 1 4.95 9.869c.68.082.972.012 1.136-.105C5.43 9.108 4.6 8.545 4.212 7.737c.504.176.972.234 1.312-.012-.223-.492-1.172-.785-1.722-1.944.539.047 1.101.117 1.218 0-.246-.996-.68-1.558-1.09-2.133 1.149-.011 2.883 0 2.8-.093l-.702-.715c1.113-.293 2.26.047 3.093.305.375-.293-.012-.656-.457-1.031.949.129 1.804.34 2.589.632.41-.363-.27-.738-.598-1.101 1.465.27 2.085.656 2.707 1.043.445-.422.023-.785-.282-1.148 1.102.398 1.676.925 2.273 1.44.2-.269.516-.468.14-1.124.786.445 1.383.972 1.817 1.558.48-.304.293-.726.293-1.101.82.656 1.335 1.347 1.968 2.027.129-.094.234-.399.34-.89 1.944 1.862 4.697 6.548.703 8.411-3.398-2.753-7.452-4.768-11.95-6.268 5.775 2.93 9.138 5.307 10.977 7.334-.937 3.726-5.858 3.89-7.662 3.784.363-.164.68-.375.785-.68-.468-.327-2.061-.046-3.186-.655z"/>
        <path fill="#C41949" d="M16.619 18.199c1.968.328-9.443 10.134-9.619 7.955-.175-5.706 4.277-8.845 9.619-7.955zM4.505 40.084C1.73 37.88.838 31.449 5.981 28.567c3.105-.82 1.055 12.63-1.476 11.517zM15.166 51.588c-1.558.926-5.366.55-8.06-3.269-1.816-3.21-1.582-6.467-.305-7.427 1.91-1.148 4.862.398 7.135 2.999 1.98 2.343 2.882 6.479 1.23 7.697zM12.073 37.565c-2.87-1.851-3.386-6.046-1.16-9.373 2.226-3.327 6.362-4.522 9.232-2.67 2.87 1.85 3.386 6.044 1.16 9.372-2.238 3.327-6.373 4.522-9.232 2.67zM24.046 58.126c-3.444.14-6.818-2.777-6.771-3.785-.047-1.488 4.194-2.647 6.947-2.577 2.777-.117 6.514.878 6.526 2.214.058 1.289-3.374 4.206-6.702 4.148zM30.947 43.493c.023 3.48-3.07 6.303-6.889 6.326-3.82.024-6.935-2.788-6.959-6.256v-.07c-.023-3.48 3.07-6.303 6.889-6.327 3.819-.023 6.935 2.789 6.959 6.256v.07zM40.577 48.495c-2.964 4.054-6.982 4.206-8.47 3.081-1.559-1.452-.375-5.963 1.769-8.435 2.448-2.73 5.073-4.51 6.9-3.116 1.23 1.206 1.957 5.752-.2 8.47zM43.26 39.92c-2.519 1.1-4.57-12.337-1.476-11.517 5.143 2.894 4.252 9.326 1.476 11.516z"/>
    </g>
</svg>
