<svg xmlns="http://www.w3.org/2000/svg" xmlns:xlink="http://www.w3.org/1999/xlink" width="510" height="113" viewBox="0 0 510 113">
    <defs>
        <path id="a" d="M0 .068h78V70H0z"/>
        <path id="c" d="M0 0h154.823v112.38H0z"/>
        <path id="e" d="M0 28h74V0H0z"/>
    </defs>
    <g fill="none" fill-rule="evenodd">
        <path stroke="#5B5B5C" stroke-linecap="square" stroke-width="4" d="M219.757 70.412H153"/>
        <g transform="translate(215.889 40)">
            <mask id="b" fill="#fff">
                <use xlink:href="#a"/>
            </mask>
            <path fill="#54B570" d="M73.517 59.277c0 3.393-2.748 6.153-6.126 6.153H10.609c-3.378 0-6.126-2.76-6.126-6.153V48.993c.163.122.332.24.506.356 2.898 1.925 5.841 2.07 7.387 1.974h55.812c.137 0 .274-.012.409-.038a11.9 11.9 0 0 0 4.92-2.151v10.143zM13.44 9.396a6.658 6.658 0 0 1 6.418-4.894h36.77a6.618 6.618 0 0 1 6.34 4.63l10.44 32.917a7.542 7.542 0 0 1-1.957 2.966 7.519 7.519 0 0 1-3.485 1.806H12.303c-.052 0-.104.002-.155.006-.956.066-2.838-.006-4.686-1.233-1.68-1.117-2.503-2.658-2.878-3.626L13.44 9.396zm64.452 31.962h.001L67.24 7.767A11.086 11.086 0 0 0 56.63 0H19.857C14.847 0 10.43 3.376 9.115 8.21L.078 41.448H.08c-.052.19-.08.389-.08.594v17.235c0 5.876 4.76 10.655 10.61 10.655h56.78c5.85 0 10.61-4.78 10.61-10.655V42.042a2.26 2.26 0 0 0-.108-.684z" mask="url(#b)"/>
        </g>
        <path fill="#54B570" d="M230.889 96a2 2 0 1 0 0 4 2 2 0 0 0 0-4M244.889 96h-8a2 2 0 1 0 0 4h8a2 2 0 0 0 0-4M260.402 68.861v-5.09h4.725l-4.725 5.09zm-7.692 7.976v-5.091h4.724l-4.724 5.09zM240 77.897h19.44l.042-7.17h7.024l-7.065 7.17h7.065V51L240 77.897z"/>
        <g>
            <mask id="d" fill="#fff">
                <use xlink:href="#c"/>
            </mask>
            <path fill="#5B5B5C" d="M4.087 9.127a4.758 4.758 0 0 1 4.747-4.759l136.936-.287a4.758 4.758 0 0 1 4.767 4.739l.198 94.433a4.758 4.758 0 0 1-4.746 4.759L9.053 108.3a4.758 4.758 0 0 1-4.767-4.74L4.087 9.127zm55.24 103.148l35.787-.075-35.788.075zm39.875-.084l46.795-.098c4.877-.01 8.836-3.98 8.826-8.849l-.199-94.433c-.01-4.869-3.986-8.821-8.863-8.811L8.826.288C3.949.298-.01 4.267 0 9.135l.199 94.434c.01 4.869 3.986 8.821 8.863 8.811l46.177-.097 43.963-.092z" mask="url(#d)"/>
        </g>
        <path fill="#5B5B5C" d="M77.557 10.683l63.93 71.938a2.028 2.028 0 0 1-.172 2.868 2.038 2.038 0 0 1-2.872-.172l-63.93-71.938a2.029 2.029 0 0 1 .172-2.867 2.038 2.038 0 0 1 2.872.171M95.698 15.506a1.995 1.995 0 0 1 2.857.207l38.95 45.862a2.1 2.1 0 0 1-.203 2.919 1.995 1.995 0 0 1-2.857-.207l-38.95-45.862a2.1 2.1 0 0 1 .203-2.919M112.717 20.498a2.113 2.113 0 0 1 2.934.203l19.84 21.93c.753.85.66 2.135-.208 2.871a2.112 2.112 0 0 1-2.934-.203l-19.84-21.931a2.004 2.004 0 0 1 .208-2.87"/>
        <g>
            <path fill="#5B5B5C" d="M375.74 61.433c-10.468 0-18.983 8.483-18.983 18.91 0 10.428 8.515 18.91 18.982 18.91h105.968c13.53 0 24.536-10.964 24.536-24.442 0-13.477-11.006-24.442-24.536-24.442-.073 0-.147.002-.221.005l-1.77.034.169-1.55c.128-1.169.192-2.333.192-3.46 0-17.453-14.252-31.652-31.771-31.652-13.33 0-25.335 8.385-29.877 20.865l-.492 1.352-1.333-.552a27.532 27.532 0 0 0-10.586-2.099c-14.855 0-27.232 12.035-27.59 26.827l-.036 1.428-1.43-.09c-.472-.03-.861-.044-1.223-.044M481.707 102H375.74C363.752 102 354 92.285 354 80.344c0-11.941 9.75-21.656 21.736-21.657.516-7.4 3.702-14.281 9.062-19.503 5.703-5.558 13.24-8.618 21.22-8.618 3.552 0 7.019.605 10.327 1.799C421.624 19.528 434.292 11 448.305 11c19.04 0 34.529 15.431 34.529 34.398 0 .737-.026 1.488-.076 2.245C497.322 48.194 509 60.17 509 74.81 509 89.803 496.757 102 481.707 102"/>
            <path stroke="#5B5B5C" stroke-width="2" d="M375.74 61.433c-10.468 0-18.983 8.483-18.983 18.91 0 10.428 8.515 18.91 18.982 18.91h105.968c13.53 0 24.536-10.964 24.536-24.442 0-13.477-11.006-24.442-24.536-24.442-.073 0-.147.002-.221.005l-1.77.034.169-1.55c.128-1.169.192-2.333.192-3.46 0-17.453-14.252-31.652-31.771-31.652-13.33 0-25.335 8.385-29.877 20.865l-.492 1.352-1.333-.552a27.532 27.532 0 0 0-10.586-2.099c-14.855 0-27.232 12.035-27.59 26.827l-.036 1.428-1.43-.09c-.472-.03-.861-.044-1.223-.044zM481.706 102H375.74C363.752 102 354 92.285 354 80.344c0-11.941 9.75-21.656 21.736-21.657.516-7.4 3.702-14.281 9.062-19.503 5.703-5.558 13.24-8.618 21.22-8.618 3.552 0 7.019.605 10.327 1.799C421.624 19.528 434.292 11 448.305 11c19.04 0 34.529 15.431 34.529 34.398 0 .737-.026 1.488-.076 2.245C497.322 48.194 509 60.17 509 74.81 509 89.803 496.757 102 481.707 102z"/>
        </g>
        <g transform="translate(389 52)">
            <path fill="#626262" d="M38.38 8.06c-.376.34-.962.552-1.715.552h-1.128V3.267h1.087c.292 0 .585.042.836.085.753.127 1.17.551 1.338 1.357.083.382.125.806.125 1.23-.042 1.061-.209 1.782-.543 2.122m4.264 9.715c-.041-.255-.041-.594-.041-.976v-3.012c0-1.952-.628-3.14-1.882-3.564-.335-.127-.71-.212-1.129-.297.376-.085.669-.212.962-.34.92-.38 1.505-1.102 1.797-2.163a7.986 7.986 0 0 0 .252-2.036c0-1.867-.503-3.182-1.506-3.946-.752-.594-2.132-.89-4.139-.933h-5.1v18.37h3.679v-7.51h1.128c.293 0 .628.043.92.086.92.212 1.38.975 1.38 2.29v3.013c0 .297.042.678.084 1.145l.167.933h3.679a9.215 9.215 0 0 1-.251-1.06"/>
            <mask id="f" fill="#fff">
                <use xlink:href="#e"/>
            </mask>
            <path fill="#626262" d="M44.734 18.879h3.68V.509h-3.68zM54.35 13.067v.678c-.042 1.74.627 2.588 1.965 2.63 1.087 0 1.798-.466 2.007-1.442.084-.254.084-.551.084-.848 0-.424-.084-.764-.251-1.06-.126-.255-.335-.468-.627-.68l-.544-.381-3.094-1.867c-.585-.34-1.087-.679-1.505-1.06-.543-.425-.92-.934-1.129-1.443-.25-.594-.418-1.358-.418-2.249 0-3.436 1.882-5.133 5.644-5.175 3.094 0 4.808 1.103 5.185 3.309.083.594.167 1.188.167 1.824v.764h-3.68v-.552c0-.382-.041-.764-.083-1.103-.125-.933-.669-1.4-1.714-1.4-1.212 0-1.798.636-1.84 1.994 0 .467.084.848.251 1.145.168.255.46.552.878.849l.753.509 3.052 1.824c.418.255.794.51 1.129.806.501.425.836.891 1.045 1.4.25.637.376 1.358.376 2.249 0 2.673-1.003 4.327-3.052 4.921-.878.297-1.798.424-2.801.424a9.359 9.359 0 0 1-2.717-.382c-1.59-.466-2.509-1.484-2.76-3.139-.083-.593-.167-1.23-.125-1.951v-.637h3.804v.043zM73.833.51v2.757H68.48V8.06h5.185v2.757H68.48v5.26H74v2.8h-9.198V.51z" mask="url(#f)"/>
            <path fill="#9B9B9B" d="M31.858 21.679h1.254l.878 4.2 1.003-4.2h1.17l-1.504 5.77h-1.38zM40.972 27.49h1.212V21.68h-1.212zM48.58 27.576c-1.462 0-1.755-.891-1.714-1.867h1.213c0 .552.042 1.018.669 1.018.418 0 .585-.254.585-.679 0-1.06-2.424-1.103-2.424-2.842 0-.89.418-1.612 1.88-1.612 1.172 0 1.757.509 1.673 1.74h-1.129c0-.425-.083-.892-.543-.892-.376 0-.627.213-.627.637 0 1.103 2.425 1.018 2.425 2.842 0 1.443-1.087 1.655-2.007 1.655M55.312 27.49h1.212V21.68h-1.212zM63.088 26.685c-.669 0-.753-.636-.753-2.121 0-1.485.084-2.121.753-2.121.67 0 .753.636.753 2.12.041 1.486-.042 2.122-.753 2.122m0-5.134c-1.965 0-1.965 1.443-1.965 3.013 0 1.527 0 3.012 1.965 3.012s1.965-1.485 1.965-3.012c.042-1.528.042-3.013-1.965-3.013M69.736 27.449v-5.77h1.63l1.505 3.988h.042v-3.989H74v5.77h-1.547l-1.589-4.242v4.243zM20.402 18.412v-5.09h4.724l-4.724 5.09zm-7.692 7.976v-5.09h4.724l-4.724 5.09zM0 27.448h19.44l.042-7.17h7.024l-7.065 7.17h7.065V.552L0 27.45z" mask="url(#f)"/>
        </g>
        <g fill="#5B5B5C" stroke="#5B5B5C">
            <path d="M331.998 49.576c-7.014 5.303-11.464 13.001-12.529 21.676-1.065 8.674 1.39 17.22 6.913 24.063.44.546 1.243.636 1.793.2.55-.434.638-1.23.198-1.775-.268-.332-.523-.67-.775-1.01-4.54-6.128-6.527-13.593-5.597-21.167.93-7.575 4.664-14.338 10.552-19.185.326-.269.656-.535.996-.792a1.251 1.251 0 0 0 .237-1.771 1.284 1.284 0 0 0-1.788-.24"/>
            <path d="M337.474 56.506a23.466 23.466 0 0 0-6.297 7.077 23.142 23.142 0 0 0-2.91 8.75 23.138 23.138 0 0 0 .707 9.191 23.468 23.468 0 0 0 4.397 8.391c.443.543 1.246.63 1.794.192a1.254 1.254 0 0 0 .19-1.776c-.269-.33-.524-.669-.77-1.011-3.086-4.278-4.429-9.44-3.786-14.677.643-5.237 3.195-9.921 7.224-13.325.322-.273.65-.539.992-.794a1.254 1.254 0 0 0 .245-1.77 1.285 1.285 0 0 0-1.786-.248"/>
            <path d="M344.47 65.46a1.253 1.253 0 0 0 .265-1.766 1.283 1.283 0 0 0-1.784-.266c-3.303 2.423-5.393 5.968-5.886 9.984-.493 4.016.677 7.963 3.296 11.112.448.54 1.252.617 1.795.174.543-.442.62-1.24.171-1.778a12.585 12.585 0 0 1-.76-1.014 11.926 11.926 0 0 1-1.97-8.183 11.923 11.923 0 0 1 3.891-7.462c.311-.28.64-.548.983-.8"/>
        </g>
    </g>
</svg>
