<svg xmlns="http://www.w3.org/2000/svg" width="60" height="60" viewBox="0 0 60 60">
    <g fill="none" fill-rule="nonzero">
        <path fill="#D74614" d="M59.883 30c0 16.504-13.379 29.883-29.883 29.883C13.496 59.883.117 46.504.117 30 .117 13.496 13.496.117 30 .117 46.504.117 59.883 13.496 59.883 30z"/>
        <path fill="#FFF" d="M38.206 16.308a3.86 3.86 0 1 0 3.861-6.687 3.861 3.861 0 0 0-3.861 6.687zM30.3 41.282c-1.698 0-3.307-.378-4.752-1.05l-2.684 4.81a16.766 16.766 0 0 0 11.918 1.127 5.413 5.413 0 0 1 2.643-3.83 5.411 5.411 0 0 1 4.63-.375 16.725 16.725 0 0 0 4.985-10.883L41.537 31c-.507 5.763-5.342 10.281-11.236 10.281zm0-22.564c5.894 0 10.73 4.52 11.236 10.282l5.504-.081a16.726 16.726 0 0 0-4.985-10.883 5.411 5.411 0 0 1-4.63-.376 5.411 5.411 0 0 1-2.643-3.828 16.782 16.782 0 0 0-11.917 1.127l2.683 4.808a11.235 11.235 0 0 1 4.752-1.05v.001zM19.02 30c0-3.817 1.897-7.188 4.797-9.23l-2.824-4.73a16.807 16.807 0 0 0-6.938 9.754c1.22.994 2 2.509 2 4.206 0 1.698-.78 3.212-2 4.206a16.805 16.805 0 0 0 6.938 9.754l2.824-4.73A11.265 11.265 0 0 1 19.02 30zm19.186 13.691a3.86 3.86 0 1 0 3.861 6.688 3.86 3.86 0 1 0-3.86-6.688zM10.631 26.138a3.861 3.861 0 1 0-.002 7.723 3.861 3.861 0 0 0 .002-7.723z"/>
    </g>
</svg>
