<?xml version="1.0" encoding="UTF-8"?>
<svg width="40px" height="40px" viewBox="0 0 40 40" version="1.1" xmlns="http://www.w3.org/2000/svg" xmlns:xlink="http://www.w3.org/1999/xlink">
    <!-- Generator: sketchtool 64 (101010) - https://sketch.com -->
    <title>FD862602-B062-4359-8060-A1B64622E029@1.00x</title>
    <desc>Created with sketchtool.</desc>
    <g id="Page-1" stroke="none" stroke-width="1" fill="none" fill-rule="evenodd">
        <g id="1.3" transform="translate(-746.000000, -510.000000)" fill="#3B5998" fill-rule="nonzero">
            <g id="Group-3" transform="translate(561.000000, 418.000000)">
                <g id="Group-2" transform="translate(1.000000, 74.000000)">
                    <g id="social-media-facebook-1" transform="translate(184.000000, 18.000000)">
                        <path d="M32.5833333,24.2666667 C32.5324805,24.6874709 32.1738547,25.0030616 31.75,25 L28.3333333,25 C27.873096,25 27.5,25.373096 27.5,25.8333333 L27.5,39.1666667 C27.5,39.626904 27.873096,40 28.3333333,40 L38.3333333,40 C39.2538079,40 40,39.2538079 40,38.3333333 L40,1.66666667 C40,0.746192084 39.2538079,0 38.3333333,0 L1.66666667,0 C0.746192084,0 0,0.746192084 0,1.66666667 L0,38.3333333 C0,39.2538079 0.746192084,40 1.66666667,40 L20,40 C20.4602373,40 20.8333333,39.626904 20.8333333,39.1666667 L20.8333333,25.8333333 C20.8333333,25.373096 20.4602373,25 20,25 L16.6666667,25 C16.2064294,25 15.8333333,24.626904 15.8333333,24.1666667 L15.8333333,19.1666667 C15.8333333,18.7064294 16.2064294,18.3333333 16.6666667,18.3333333 L20,18.3333333 C20.4602373,18.3333333 20.8333333,17.9602373 20.8333333,17.5 L20.8333333,15.3166667 C20.8333333,10.0791663 25.0791663,5.83333333 30.3166667,5.83333333 L32.5,5.83333333 C32.7210137,5.83333333 32.9329753,5.9211307 33.0892557,6.07741102 C33.245536,6.23369133 33.3333333,6.44565293 33.3333333,6.66666667 L33.3333333,11.6666667 C33.3333333,12.126904 32.9602373,12.5 32.5,12.5 L30.3166667,12.5 C28.7610646,12.5 27.5,13.7610646 27.5,15.3166667 L27.5,17.5 C27.5,17.9602373 27.873096,18.3333333 28.3333333,18.3333333 L32.3833333,18.3333333 C32.6228165,18.331602 32.8514687,18.4329875 33.0109724,18.6116317 C33.1704762,18.790276 33.2454117,19.0289085 33.2166667,19.2666667 L32.5833333,24.2666667 Z" id="Path"></path>
                    </g>
                </g>
            </g>
        </g>
    </g>
</svg>