<?xml version="1.0" encoding="UTF-8"?>
<svg width="40px" height="40px" viewBox="0 0 40 40" version="1.1" xmlns="http://www.w3.org/2000/svg" xmlns:xlink="http://www.w3.org/1999/xlink">
    <!-- Generator: sketchtool 64 (101010) - https://sketch.com -->
    <title>8F427877-C5D1-49B1-88B1-55FF0D718686@1.00x</title>
    <desc>Created with sketchtool.</desc>
    <g id="Page-1" stroke="none" stroke-width="1" fill="none" fill-rule="evenodd">
        <g id="1.3" transform="translate(-1024.000000, -510.000000)" fill-rule="nonzero">
            <g id="Group-3" transform="translate(561.000000, 418.000000)">
                <g id="Group-2" transform="translate(1.000000, 74.000000)">
                    <g id="google-classroom-logo" transform="translate(462.000000, 18.000000)">
                        <rect id="Rectangle-1-Copy-8" fill="#FFC112" x="0" y="0" width="40" height="40"></rect>
                        <rect id="Rectangle-1-Copy-11" fill="#21A465" x="3.33333333" y="3.33333333" width="33.3333333" height="33.3333333"></rect>
                        <g id="Shape-Copy-2-+-Shape-Copy" transform="translate(6.666667, 13.333333)">
                            <path d="M23.3333333,5 C23.3333333,4.07962963 22.587037,3.33333333 21.6666667,3.33333333 C20.7462963,3.33333333 20,4.07962963 20,5 C20,5.92037037 20.7462963,6.66666667 21.6666667,6.66666667 C22.587037,6.66666667 23.3333333,5.92037037 23.3333333,5 Z M21.6666667,7.5 C19.2566667,7.5 16.6666667,8.68287033 16.6666667,10.1458333 L16.6666667,11.6666667 L26.6666667,11.6666667 L26.6666667,10.1458333 C26.6666667,8.68287033 24.0766667,7.5 21.6666667,7.5 L21.6666667,7.5 Z M6.66666667,5 C6.66666667,4.07962963 5.92037037,3.33333333 5,3.33333333 C4.07962963,3.33333333 3.33333333,4.07962963 3.33333333,5 C3.33333333,5.92037037 4.07962963,6.66666667 5,6.66666667 C5.92037037,6.66666667 6.66666667,5.92037037 6.66666667,5 Z M5,7.5 C2.59,7.5 0,8.68287033 0,10.1458333 L0,11.6666667 L10,11.6666667 L10,10.1458333 C10,8.68287033 7.41,7.5 5,7.5 L5,7.5 Z" id="Shape-Copy-2" fill="#57BB8A"></path>
                            <path d="M13.3354167,5 C14.7145833,5 15.8333333,3.88125 15.8333333,2.5 C15.8333333,1.12083333 14.7145833,0 13.3354167,0 C11.9541667,0 10.8333333,1.12083333 10.8333333,2.5 C10.8333333,3.88125 11.9541667,5 13.3354167,5 L13.3354167,5 Z M6.80931691,9.72222225 L6.80931691,11.6666667 L20,11.6666667 L20,9.72222225 C20,7.57361111 16.5845553,5.83333333 13.4046584,5.83333333 C10.2247617,5.83333333 6.80931691,7.57361111 6.80931691,9.72222225 Z" id="Shape-Copy" fill="#F7F7F7"></path>
                        </g>
                        <polygon id="Shape" fill="#F1F1F1" points="23.3333333 34.1666667 33.3333333 34.1666667 33.3333333 36.6666667 23.3333333 36.6666667"></polygon>
                    </g>
                </g>
            </g>
        </g>
    </g>
</svg>