<?xml version="1.0" encoding="UTF-8"?>
<svg width="37px" height="40px" viewBox="0 0 37 40" version="1.1" xmlns="http://www.w3.org/2000/svg" xmlns:xlink="http://www.w3.org/1999/xlink">
    <!-- Generator: sketchtool 64 (101010) - https://sketch.com -->
    <title>F4196010-AB61-4A9A-BF75-42D36D6A1967@1.00x</title>
    <desc>Created with sketchtool.</desc>
    <g id="Page-1" stroke="none" stroke-width="1" fill="none" fill-rule="evenodd">
        <g id="1.3" transform="translate(-887.000000, -510.000000)" fill="#0E76A8" fill-rule="nonzero">
            <g id="Group-3" transform="translate(561.000000, 418.000000)">
                <g id="Group-2" transform="translate(1.000000, 74.000000)">
                    <g id="professional-network-linkedin" transform="translate(325.000000, 18.000000)">
                        <rect id="Rectangle" x="0" y="13.6363636" width="9.09090909" height="25.4545455" rx="0.5"></rect>
                        <ellipse id="Oval" cx="4.50909091" cy="5.45454545" rx="4.50909091" ry="4.54545455"></ellipse>
                        <path d="M30,39.0909091 L35.4545455,39.0909091 C35.9566225,39.0909091 36.3636364,38.6838952 36.3636364,38.1818182 L36.3636364,22.9090909 C36.3636364,16.0545455 32.4909091,12.7272727 27.0727273,12.7272727 C24.9115888,12.6482324 22.8178586,13.4870455 21.3090909,15.0363636 C21.1049983,15.2721582 20.7756997,15.3559915 20.4837018,15.2464923 C20.1917038,15.1369931 19.9987254,14.8573059 20,14.5454545 C20,14.0433775 19.5929861,13.6363636 19.0909091,13.6363636 L13.6363636,13.6363636 C13.1342866,13.6363636 12.7272727,14.0433775 12.7272727,14.5454545 L12.7272727,38.1818182 C12.7272727,38.6838952 13.1342866,39.0909091 13.6363636,39.0909091 L19.0909091,39.0909091 C19.5929861,39.0909091 20,38.6838952 20,38.1818182 L20,24.5454545 C20,22.0350693 22.0350693,20 24.5454545,20 C27.0558398,20 29.0909091,22.0350693 29.0909091,24.5454545 L29.0909091,38.1818182 C29.0909091,38.6838952 29.497923,39.0909091 30,39.0909091 Z" id="Path"></path>
                    </g>
                </g>
            </g>
        </g>
    </g>
</svg>