<?xml version="1.0" encoding="UTF-8"?>
<svg width="40px" height="33px" viewBox="0 0 40 33" version="1.1" xmlns="http://www.w3.org/2000/svg" xmlns:xlink="http://www.w3.org/1999/xlink">
    <!-- Generator: sketchtool 64 (101010) - https://sketch.com -->
    <title>0B5E0231-F84A-4CAD-92A9-FE85D6B9BFAF@1.00x</title>
    <desc>Created with sketchtool.</desc>
    <g id="Page-1" stroke="none" stroke-width="1" fill="none" fill-rule="evenodd">
        <g id="1.3" transform="translate(-607.000000, -513.000000)" fill="#00ACEE" fill-rule="nonzero">
            <g id="Group-3" transform="translate(561.000000, 418.000000)">
                <g id="Group-2" transform="translate(1.000000, 74.000000)">
                    <g id="social-media-twitter" transform="translate(45.000000, 21.000000)">
                        <path d="M38.8666667,7.4 C39.1085148,7.19897879 39.2165987,6.87892829 39.1461413,6.57243878 C39.0756839,6.26594927 38.838687,6.02522769 38.5333333,5.95 L37.2166667,5.61666667 C36.974237,5.55597357 36.7718443,5.38968262 36.6652772,5.16363122 C36.5587101,4.93757981 36.5592201,4.67563472 36.6666667,4.45 L37.4,2.96666667 C37.5414696,2.67313881 37.4988835,2.32408313 37.2909913,2.07317867 C37.083099,1.82227422 36.7480409,1.7155525 36.4333333,1.8 L33.1,2.73333333 C32.8481942,2.8067767 32.5765049,2.75737865 32.3666667,2.6 C30.9241986,1.51814893 29.1697518,0.933333333 27.3666667,0.933333333 C22.7642938,0.933333333 19.0333333,4.66429375 19.0333333,9.26666667 L19.0333333,9.86666667 C19.0348641,10.078594 18.8770688,10.2579069 18.6666667,10.2833333 C13.9833333,10.8333333 9.5,8.45 4.66666667,2.88333333 C4.45260206,2.6472461 4.12446248,2.55073446 3.81666667,2.63333333 C3.53962827,2.76067417 3.35425304,3.02914864 3.33333333,3.33333333 C2.66576251,6.07556957 2.93566686,8.96237267 4.1,11.5333333 C4.17022936,11.6723439 4.15706957,11.8389166 4.06588309,11.9651748 C3.97469662,12.091433 3.82070825,12.1562962 3.66666667,12.1333333 L1.8,11.7666667 C1.53094407,11.7234087 1.25773604,11.8144362 1.068392,12.0104239 C0.879047953,12.2064116 0.797492739,12.4825952 0.85,12.75 C1.14148354,15.3409324 2.59482574,17.6589213 4.8,19.05 C4.94374597,19.1196194 5.03504588,19.2652823 5.03504588,19.425 C5.03504588,19.5847177 4.94374597,19.7303806 4.8,19.8 L3.91666667,20.15 C3.69977051,20.2369543 3.52934858,20.4109804 3.44695187,20.6296485 C3.36455517,20.8483167 3.37775509,21.0915336 3.48333333,21.3 C4.474893,23.4696751 6.46820872,25.0144948 8.81666667,25.4333333 C8.98145187,25.4931424 9.09117732,25.6496966 9.09117732,25.825 C9.09117732,26.0003034 8.98145187,26.1568576 8.81666667,26.2166667 C6.55060582,27.1538934 4.11877412,27.6243876 1.66666667,27.6 C1.20642938,27.5079526 0.758714145,27.8064294 0.666666688,28.2666667 C0.574619232,28.726904 0.873096053,29.1746192 1.33333333,29.2666667 C5.57924117,31.2804094 10.2019715,32.3764622 14.9,32.4833333 C19.0324223,32.5463606 23.0913037,31.3866802 26.5666667,29.15 C32.3729634,25.2741309 35.8520477,18.7477191 35.8333333,11.7666667 L35.8333333,10.3166667 C35.835392,10.0717246 35.9451121,9.84009316 36.1333333,9.68333333 L38.8666667,7.4 Z" id="Path"></path>
                    </g>
                </g>
            </g>
        </g>
    </g>
</svg>