<?xml version="1.0" encoding="UTF-8"?>
<svg width="25px" height="25px" viewBox="0 0 25 25" version="1.1" xmlns="http://www.w3.org/2000/svg" xmlns:xlink="http://www.w3.org/1999/xlink">
    <!-- Generator: Sketch 61.2 (89653) - https://sketch.com -->
    <title>Group 2</title>
    <desc>Created with Sketch.</desc>
    <g id="desktop/mockups" stroke="none" stroke-width="1" fill="none" fill-rule="evenodd">
        <g id="1.3" transform="translate(-290.000000, -179.000000)">
            <g id="Group-2" transform="translate(290.000000, 179.000000)">
                <circle id="Oval" fill="#45B764" cx="12.5" cy="12.5" r="12.5"></circle>
                <path d="M18.573,8.7 L17.177,7.3 C17.1300979,7.25297915 17.0664136,7.22655311 17,7.22655311 C16.9335864,7.22655311 16.8699021,7.25297915 16.823,7.3 L10.927,13.2 C10.8800979,13.2470209 10.8164136,13.2734469 10.75,13.2734469 C10.6835864,13.2734469 10.6199021,13.2470209 10.573,13.2 L9.177,11.8 C9.13009787,11.7529791 9.06641363,11.7265531 9,11.7265531 C8.93358637,11.7265531 8.86990213,11.7529791 8.823,11.8 L7.427,13.2 C7.32940452,13.297625 7.32940452,13.455875 7.427,13.5535 L10.573,16.7 C10.6199021,16.7470209 10.6835864,16.7734469 10.75,16.7734469 C10.8164136,16.7734469 10.8800979,16.7470209 10.927,16.7 L18.573,9.05 C18.6682857,8.95278912 18.6682857,8.79721088 18.573,8.7 Z" id="Path" fill="#FFFFFF" fill-rule="nonzero"></path>
            </g>
        </g>
    </g>
</svg>