<?xml version="1.0" encoding="UTF-8"?>
<svg width="25px" height="25px" viewBox="0 0 25 25" version="1.1" xmlns="http://www.w3.org/2000/svg" xmlns:xlink="http://www.w3.org/1999/xlink">
    <!-- Generator: Sketch 61.2 (89653) - https://sketch.com -->
    <title>Group 11</title>
    <desc>Created with Sketch.</desc>
    <g id="desktop/mockups" stroke="none" stroke-width="1" fill="none" fill-rule="evenodd">
        <g id="1.6" transform="translate(-955.000000, -179.000000)">
            <g id="Group-7" transform="translate(955.000000, 179.000000)">
                <g id="Group-8">
                    <g id="Group-11">
                        <circle id="Oval" fill="#020620" cx="12.5" cy="12.5" r="12.5"></circle>
                        <path d="M12.7734375,17.2460938 C13.9127604,17.2460938 14.7729492,16.9282227 15.3540039,16.2924805 C15.9350586,15.6567383 16.2255859,14.9195964 16.2255859,14.0810547 C16.2255859,13.2835286 15.9772135,12.6546224 15.4804688,12.1943359 C15.1477865,11.8889974 14.8925781,11.7363281 14.7148438,11.7363281 C14.9518229,11.6451823 15.1796875,11.4742839 15.3984375,11.2236328 C15.7447917,10.8225911 15.9179688,10.3304036 15.9179688,9.74707031 C15.9179688,8.92220052 15.6274414,8.2648112 15.0463867,7.77490234 C14.465332,7.28499349 13.7008464,7.04003906 12.7529297,7.04003906 C12.242513,7.04003906 11.811849,7.1015625 11.4609375,7.22460938 C11.110026,7.34765625 10.8069661,7.52539062 10.5517578,7.7578125 C10.2099609,8.0859375 9.9593099,8.4436849 9.79980469,8.83105469 C9.64941406,9.27311198 9.56510417,9.74023438 9.546875,10.2324219 L9.546875,10.2324219 L11.3652344,10.2324219 C11.3561198,9.74479167 11.4597982,9.35514323 11.6762695,9.06347656 C11.8927409,8.7718099 12.2311198,8.62597656 12.6914062,8.62597656 C13.0924479,8.62597656 13.4034831,8.74446615 13.6245117,8.98144531 C13.8455404,9.21842448 13.9560547,9.52604167 13.9560547,9.90429688 C13.9560547,10.4876302 13.7395833,10.875 13.3066406,11.0664062 C13.0559896,11.1803385 12.6139323,11.241862 11.9804688,11.2509766 L11.9804688,11.2509766 L11.9804688,12.6455078 C12.6276042,12.6455078 13.1015625,12.7070312 13.4023438,12.8300781 C13.9309896,13.0488281 14.1953125,13.4840495 14.1953125,14.1357422 C14.1953125,14.6279297 14.0528971,15.0050456 13.7680664,15.2670898 C13.4832357,15.5291341 13.1494141,15.6601562 12.7666016,15.6601562 C12.1422526,15.6601562 11.7115885,15.4208984 11.4746094,14.9423828 C11.3470052,14.6826172 11.2832031,14.3544922 11.2832031,13.9580078 L11.2832031,13.9580078 L9.36914062,13.9580078 C9.40104167,14.7464193 9.56054688,15.3844401 9.84765625,15.8720703 C10.3945312,16.7880859 11.3697917,17.2460938 12.7734375,17.2460938 Z" id="3" fill="#FFFFFF" fill-rule="nonzero"></path>
                    </g>
                </g>
            </g>
        </g>
    </g>
</svg>