<?xml version="1.0" encoding="UTF-8"?>
<svg width="25px" height="25px" viewBox="0 0 25 25" version="1.1" xmlns="http://www.w3.org/2000/svg" xmlns:xlink="http://www.w3.org/1999/xlink">
    <!-- Generator: Sketch 61.2 (89653) - https://sketch.com -->
    <title>Group 10</title>
    <desc>Created with Sketch.</desc>
    <g id="desktop/mockups" stroke="none" stroke-width="1" fill="none" fill-rule="evenodd">
        <g id="1.5" transform="translate(-613.000000, -179.000000)">
            <g id="Group-7" transform="translate(613.000000, 179.000000)">
                <g id="Group-8">
                    <g id="Group-10">
                        <circle id="Oval" fill="#020620" cx="12.5" cy="12.5" r="12.5"></circle>
                        <path d="M16.2255859,17 L16.2255859,15.2841797 L11.8984375,15.2841797 C12.0214844,15.0791016 12.1730143,14.8990885 12.3530273,14.7441406 C12.5330404,14.5891927 12.866862,14.3385417 13.3544922,13.9921875 L13.3544922,13.9921875 L14.1337891,13.4384766 C14.7900391,12.9736328 15.2617188,12.5520833 15.5488281,12.1738281 C15.9863281,11.6041667 16.2050781,10.952474 16.2050781,10.21875 C16.2050781,9.26171875 15.8951823,8.49267578 15.2753906,7.91162109 C14.655599,7.33056641 13.8216146,7.04003906 12.7734375,7.04003906 C11.4472656,7.04003906 10.5244141,7.53450521 10.0048828,8.5234375 C9.73144531,9.04296875 9.57877604,9.72428385 9.546875,10.5673828 L9.546875,10.5673828 L11.4404297,10.5673828 C11.4632161,10.0113932 11.5361328,9.60579427 11.6591797,9.35058594 C11.8733724,8.90852865 12.2766927,8.6875 12.8691406,8.6875 C13.3020833,8.6875 13.6347656,8.8264974 13.8671875,9.10449219 C14.0996094,9.38248698 14.2158203,9.73111979 14.2158203,10.1503906 C14.2158203,10.6653646 14.0130208,11.1393229 13.6074219,11.5722656 C13.343099,11.8502604 12.7620443,12.3105469 11.8642578,12.953125 C10.8297526,13.6914062 10.1735026,14.3909505 9.89550781,15.0517578 C9.60839844,15.6396484 9.45572917,16.2890625 9.4375,17 L9.4375,17 L16.2255859,17 Z" id="2" fill="#FFFFFF" fill-rule="nonzero"></path>
                    </g>
                </g>
            </g>
        </g>
    </g>
</svg>